<svg xmlns="http://www.w3.org/2000/svg" xmlns:xlink="http://www.w3.org/1999/xlink" viewBox="0 0 45 66" fill="#fff" fill-rule="evenodd" stroke="#000" stroke-linecap="round" stroke-linejoin="round"><use xlink:href="#A" x=".5" y=".5"/><symbol id="A" overflow="visible"><g stroke="none"><path d="M6.684.084c0 .038-.04.07-.088.07-.137 0-.234.05-.234.12 0 .04-.05.064-.14.064-.08 0-.15.03-.166.07a.12.12 0 0 1-.1.07c-.132 0-.23.05-.23.12 0 .04-.05.064-.14.064-.08 0-.15.03-.166.07s-.083.07-.157.07c-.1 0-.14.03-.16.092s-.07.092-.16.092c-.073 0-.142.03-.157.07s-.08.07-.15.07c-.082 0-.13.03-.145.092-.018.07-.063.092-.18.092-.107 0-.156.02-.156.07s-.048.07-.16.07-.16.02-.16.07c0 .038-.04.07-.088.07-.137 0-.234.05-.234.12 0 .04-.05.064-.14.064-.08 0-.15.03-.166.07s-.064.07-.1.07c-.132 0-.23.05-.23.12 0 .04-.05.064-.14.064-.08 0-.15.03-.166.07s-.084.07-.164.07c-.1 0-.144.026-.162.092s-.063.092-.157.092c-.073 0-.132.017-.132.04s-.04.087-.092.145c-.117.135-.146 3.186-.03 3.256.034.02.074.073.09.117.02.05.078.08.17.08s.14.023.14.07.048.07.156.07c.117 0 .162.023.18.092s.063.092.167.092c.096 0 .142.025.142.07s.048.07.156.07c.117 0 .162.023.18.092s.063.092.167.092c.096 0 .142.025.142.07s.048.07.16.07.16.02.16.07.048.07.16.07c.13 0 .16.017.16.092s.03.092.16.092c.112 0 .16.02.16.07s.045.07.127.07.15.036.184.092a.22.22 0 0 0 .174.092c.064 0 .128.03.142.07s.084.07.16.07c.083 0 .133.024.133.064s.036.077.08.095c.067.026.07.036.01.072s-.07.192-.082.787c-.01.57-.03.76-.08.81s-.066.235-.066.875c0 .717-.01.816-.08.868s-.082.16-.095.875c-.01.632-.03.83-.08.882s-.066.234-.066.875c0 .7-.01.817-.076.865-.05.036-.084.146-.098.316-.02.25-.027.26-.15.26-.07 0-.16.03-.198.07a.27.27 0 0 1-.164.069.32.32 0 0 0-.187.092c-.057.053-.131.086-.209.092-.064 0-.127.03-.14.064s-.096.077-.183.094c-.094.018-.158.057-.158.096 0 .046-.05.067-.16.067s-.16.02-.16.07-.046.07-.142.07c-.104 0-.15.025-.167.092s-.063.092-.18.092c-.107 0-.156.02-.156.07s-.046.07-.142.07c-.104 0-.15.025-.167.092-.013.05-.063.092-.11.092s-.087.03-.087.07-.03.07-.07.07-.07.026-.07.058-.04.084-.092.115c-.143.09-.143 2.815 0 2.958.053.057.086.131.092.209 0 .07.032.13.08.146s.097.057.117.09.088.06.15.06.126.03.14.067.095.08.18.096.165.058.178.093.075.064.136.064.123.03.138.07.08.07.143.07c.078.006.152.038.209.092.05.05.13.092.18.092s.1.03.114.07.083.07.155.07c.08 0 .15.036.186.092.042.067.107.092.24.092.192 0 .272.14.115.2-.055.02-.07.12-.07.488 0 .362-.014.462-.064.462-.067 0-.12.135-.12.314 0 .06-.032.138-.07.176a.27.27 0 0 0-.07.164c0 .052-.032.12-.072.148s-.084.14-.098.246-.054.217-.09.246-.063.13-.063.225-.03.197-.064.226a.38.38 0 0 0-.094.175.46.46 0 0 1-.096.186c-.036.037-.067.146-.067.243 0 .107-.025.185-.063.2s-.077.08-.094.15a.45.45 0 0 1-.098.19c-.038.036-.067.146-.067.243 0 .114-.024.185-.07.2s-.07.092-.07.237-.022.218-.066.235c-.036.014-.08.084-.095.156a.38.38 0 0 1-.095.186c-.037.03-.066.134-.066.233 0 .117-.032.2-.092.27a.37.37 0 0 0-.092.247c0 .085-.03.18-.07.213-.043.043-.068.101-.069.162s-.03.116-.066.13-.08.104-.095.2c-.018.104-.05.205-.095.3a.55.55 0 0 0-.066.19.11.11 0 0 1-.066.094c-.037.014-.08.122-.1.245s-.06.248-.095.282-.062.14-.062.238c0 .114-.024.185-.07.2s-.07.084-.07.166c0 .088-.023.14-.064.14-.067 0-.12.135-.12.314 0 .06-.032.138-.07.176s-.07.15-.07.25c0 .15-.016.18-.092.18-.05 0-.092.03-.092.07s-.03.07-.07.07-.07.04-.07.092-.03.092-.07.092-.084.036-.1.08a.49.49 0 0 1-.091.141.23.23 0 0 0-.06.138c0 .042-.04.104-.092.135-.062.04-.092.107-.092.213 0 .096-.026.166-.07.182-.105.04-.105 29.83 0 29.935.038.038.07.132.07.2 0 .09.032.16.092.2.053.036.087.095.092.159 0 .056.025.118.06.14a.26.26 0 0 1 .09.117c.016.044.06.08.1.08s.07.04.07.092.03.092.07.092.07.03.07.07.04.07.092.07.092.03.092.07.03.07.07.07a.07.07 0 0 1 .069.07c0 .04.036.084.08.1s.097.057.117.09.086.06.146.06c.07 0 .12.034.14.092.02.065.07.092.167.092.076 0 .17.03.207.07.105.105 39.06.105 39.1 0 .017-.043.087-.07.187-.07.122 0 .166-.022.185-.092.016-.06.063-.092.135-.092.06 0 .123-.03.137-.07s.066-.07.114-.07c.056 0 .087-.032.087-.092a.08.08 0 0 1 .092-.092c.05 0 .092-.03.092-.07s.03-.07.07-.07.07-.03.07-.07.03-.07.07-.07.07-.04.07-.092c0-.06.03-.092.092-.092s.092-.03.092-.087c0-.048.03-.1.07-.114s.07-.076.07-.137c0-.075.032-.12.092-.135.068-.018.092-.063.094-.178.001-.085.032-.194.07-.243.104-.137.1-29.875-.002-29.96-.038-.03-.07-.13-.07-.217 0-.12-.022-.166-.092-.184-.064-.017-.092-.063-.092-.152 0-.07-.03-.14-.07-.154a.11.11 0 0 1-.07-.097c0-.039-.04-.07-.092-.07a.08.08 0 0 1-.092-.092c0-.05-.03-.092-.07-.092-.05 0-.07-.054-.07-.212 0-.116-.03-.267-.066-.334s-.08-.2-.095-.3-.058-.187-.095-.2-.066-.088-.066-.186a.71.71 0 0 0-.066-.283c-.036-.067-.08-.2-.095-.3s-.058-.187-.095-.2c-.044-.017-.066-.094-.066-.23s-.022-.212-.07-.23-.07-.09-.07-.206-.03-.21-.092-.27-.092-.153-.092-.25c0-.087-.03-.19-.07-.227s-.07-.117-.07-.176c-.001-.18-.052-.314-.12-.314-.045 0-.064-.064-.064-.225s-.02-.233-.07-.252-.07-.09-.07-.206c0-.1-.028-.204-.063-.232s-.075-.14-.09-.246-.058-.217-.098-.246-.072-.118-.072-.2a.79.79 0 0 0-.092-.317.8.8 0 0 1-.092-.225c0-.029-.03-.065-.07-.08-.045-.018-.07-.09-.07-.206 0-.104-.03-.204-.07-.237s-.07-.127-.07-.213c0-.094-.036-.192-.092-.247s-.092-.153-.092-.27c0-.1-.03-.203-.07-.236s-.07-.127-.07-.213c0-.094-.036-.192-.092-.247-.06-.06-.092-.153-.092-.278s-.023-.194-.07-.212-.07-.09-.07-.206-.03-.21-.092-.27-.092-.153-.092-.278-.023-.194-.07-.212c-.15-.057-.09-.385.07-.385.08 0 .15-.03.166-.07s.066-.07.114-.07.123-.04.166-.092.134-.092.202-.092.135-.03.15-.07.08-.07.144-.07.13-.03.144-.07.066-.07.114-.07.13-.04.18-.092c.057-.053.131-.086.209-.092.064 0 .128-.03.142-.067s.065-.08.114-.095c.06-.02.087-.07.087-.158 0-.073.03-.142.07-.157.06-.023.07-.232.07-1.497s-.01-1.474-.07-1.497c-.038-.015-.07-.058-.07-.097s-.04-.07-.092-.07-.092-.03-.092-.07-.03-.07-.064-.07-.074-.04-.087-.092c-.017-.066-.063-.092-.162-.092-.08 0-.15-.03-.164-.07s-.084-.07-.16-.07c-.095 0-.14-.026-.158-.092s-.063-.092-.162-.092c-.08 0-.15-.03-.164-.07s-.084-.07-.166-.07c-.1 0-.14-.023-.14-.065 0-.036-.066-.08-.15-.098s-.2-.06-.24-.096-.117-.063-.15-.063-.1-.04-.15-.092a.33.33 0 0 0-.197-.092.24.24 0 0 1-.172-.097 1.63 1.63 0 0 0-.125-.158c-.042-.044-.057-.312-.057-1.007 0-.886-.006-.954-.092-1.04s-.092-.153-.092-1.06c0-.818-.01-.973-.07-.995s-.07-.168-.07-.92c0-.832-.006-.9-.092-.985s-.092-.153-.092-.875v-.788h.136c.09 0 .154-.032.186-.092s.096-.092.186-.092.136-.023.136-.07.048-.07.16-.07c.13 0 .16-.017.16-.092s.03-.092.16-.092c.112 0 .16-.02.16-.07s.048-.07.16-.07.16-.02.16-.07.046-.07.142-.07c.104 0 .15-.025.167-.092s.063-.092.18-.092c.107 0 .156-.02.156-.07s.046-.07.142-.07c.104 0 .15-.025.167-.092s.063-.092.18-.092c.107 0 .156-.02.156-.07s.046-.07.138-.07c.105 0 .138-.02.138-.087 0-.048.04-.1.092-.11.144-.037.144-3.057 0-3.187a.28.28 0 0 1-.092-.168c0-.063-.034-.085-.136-.085-.09 0-.154-.032-.186-.092-.03-.054-.096-.092-.164-.092s-.127-.03-.14-.07-.084-.07-.16-.07c-.086 0-.133-.024-.133-.067s-.064-.08-.158-.096c-.087-.016-.17-.06-.183-.094s-.087-.064-.164-.064c-.09 0-.14-.023-.14-.064 0-.07-.096-.12-.23-.12-.046 0-.095-.03-.1-.07s-.084-.07-.166-.07c-.093 0-.14-.023-.14-.07s-.048-.07-.156-.07c-.117 0-.162-.023-.18-.092s-.063-.092-.167-.092c-.096 0-.142-.025-.142-.07s-.048-.07-.156-.07c-.117 0-.162-.023-.18-.092-.02-.052-.066-.072-.149-.072-.066 0-.133-.03-.15-.07s-.082-.07-.15-.07-.157-.06-.201-.1-.118-.092-.166-.092-.1-.03-.114-.07-.076-.068-.166-.068-.14-.023-.14-.067-.064-.08-.158-.096c-.087-.016-.17-.06-.183-.094-.037-.097-1.033-.093-1.07.004-.015.038-.064.07-.1.07-.132 0-.23.05-.23.12 0 .04-.05.064-.14.064-.08 0-.15.03-.166.07s-.076.07-.136.07a.22.22 0 0 0-.167.092c-.034.054-.107.092-.18.092-.067 0-.134.03-.15.07s-.084.07-.166.07c-.11 0-.14.02-.14.092s-.03.092-.16.092c-.112 0-.16.02-.16.07s-.048.07-.16.07c-.13 0-.16.017-.16.092s-.03.092-.16.092c-.112 0-.16.02-.16.07s-.048.07-.16.07-.16.02-.16.07-.046.07-.142.07c-.104 0-.15.025-.167.092s-.063.092-.158.092c-.077 0-.146.03-.16.07s-.076.07-.136.07a.22.22 0 0 0-.167.092c-.035.056-.107.092-.186.092-.072 0-.14.03-.155.07s-.083.07-.157.07c-.1 0-.14.03-.16.092s-.07.092-.164.092-.135.023-.135.07-.048.07-.16.07c-.13 0-.16.017-.16.092s-.03.092-.16.092c-.112 0-.16.02-.16.07s-.048.07-.16.07-.16.02-.16.07c0 .038-.027.07-.062.07s-.1.04-.145.092-.12.092-.165.092a.24.24 0 0 0-.15.07.26.26 0 0 1-.157.069c-.048 0-.126.04-.172.092s-.12.092-.165.092a.24.24 0 0 0-.15.07.27.27 0 0 1-.164.069c-.052 0-.12.04-.15.092s-.102.092-.158.092-.132.03-.17.07a.27.27 0 0 1-.164.069c-.052 0-.12.04-.15.092s-.102.092-.156.092-.124.03-.156.07-.106.07-.166.07a.22.22 0 0 0-.167.092.21.21 0 0 1-.156.092c-.054 0-.124.03-.156.07s-.107.07-.168.07-.123.03-.137.07-.073.07-.13.07-.14.04-.186.092-.12.092-.165.092a.24.24 0 0 0-.15.07.26.26 0 0 1-.157.069c-.048 0-.126.04-.172.092s-.12.092-.165.092a.24.24 0 0 0-.15.07.27.27 0 0 1-.164.069c-.052 0-.12.04-.15.092s-.102.092-.156.092-.124.03-.156.07-.106.07-.166.07a.22.22 0 0 0-.167.092.21.21 0 0 1-.156.092c-.054 0-.124.03-.156.07s-.104.07-.16.07-.13.03-.16.07-.087.07-.122.07-.1.04-.164.092-.132.092-.173.092a.34.34 0 0 0-.164.067c-.05.037-.125.068-.162.07s-.11.043-.157.094-.12.092-.162.092-.105.03-.137.07a.21.21 0 0 1-.145.07.46.46 0 0 0-.202.074c-.104.068-.113.068-.113 0 0-.054-.043-.074-.16-.074-.112 0-.16-.02-.16-.07s-.048-.07-.16-.07c-.13 0-.16-.017-.16-.092s-.03-.092-.138-.092c-.092 0-.138-.023-.138-.07s-.048-.07-.156-.07c-.117 0-.162-.023-.18-.092s-.063-.092-.167-.092c-.096 0-.142-.025-.142-.07s-.048-.07-.16-.07-.16-.02-.16-.07-.048-.07-.16-.07c-.13 0-.16-.017-.16-.092s-.03-.092-.16-.092c-.112 0-.16-.02-.16-.07s-.048-.07-.16-.07c-.13 0-.16-.017-.16-.092s-.03-.092-.16-.092c-.112 0-.16-.02-.16-.07s-.048-.07-.16-.07c-.13 0-.16-.017-.16-.092s-.03-.092-.133-.092c-.076 0-.145-.03-.16-.07s-.084-.07-.16-.07c-.095 0-.14-.026-.158-.092s-.063-.092-.167-.092c-.096 0-.142-.025-.142-.07s-.048-.07-.16-.07-.16-.02-.16-.07-.048-.07-.16-.07c-.13 0-.16-.017-.16-.092s-.03-.092-.16-.092c-.112 0-.16-.02-.16-.07s-.048-.07-.16-.07c-.13 0-.16-.017-.16-.092s-.03-.092-.16-.092c-.112 0-.16-.02-.16-.07s-.048-.07-.16-.07c-.13 0-.16-.017-.16-.092s-.03-.092-.16-.092c-.112 0-.16-.02-.16-.07s-.045-.07-.132-.07c-.094 0-.14-.027-.157-.092s-.063-.092-.162-.092c-.08 0-.15-.03-.164-.07s-.084-.07-.16-.07c-.095 0-.14-.026-.158-.092s-.063-.092-.167-.092c-.096 0-.142-.025-.142-.07s-.048-.07-.16-.07-.16-.02-.16-.07-.048-.07-.16-.07c-.13 0-.16-.017-.16-.092s-.03-.092-.16-.092c-.112 0-.16-.02-.16-.07s-.048-.07-.16-.07c-.13 0-.16-.017-.16-.092s-.03-.092-.16-.092c-.112 0-.16-.02-.16-.07s-.048-.07-.156-.07c-.117 0-.162-.023-.18-.092-.016-.06-.063-.092-.14-.092-.063 0-.126-.03-.14-.07s-.083-.07-.155-.07c-.08 0-.15-.036-.186-.092a.22.22 0 0 0-.167-.092c-.06 0-.122-.03-.136-.07s-.084-.07-.166-.07c-.093 0-.14-.023-.14-.07s-.048-.07-.156-.07c-.117 0-.162-.023-.18-.092s-.063-.092-.167-.092c-.096 0-.142-.025-.142-.07s-.048-.07-.156-.07c-.117 0-.162-.023-.18-.092S9.273.788 9.17.788c-.096 0-.142-.025-.142-.07s-.048-.07-.16-.07-.16-.02-.16-.07c0-.042-.058-.082-.142-.1C8.488.462 8.413.422 8.4.388s-.084-.06-.15-.06-.158-.04-.202-.092S7.93.144 7.882.144s-.1-.03-.114-.07C7.751.028 7.646.015 7.216.015c-.44 0-.53.012-.53.07m2.44 2.185l4.182 2.103 2.386 1.224c.013.02.062.038.1.038.058.005.113.029.155.069s.082.07.098.07c.035 0 .406.18.76.37.14.074.276.135.305.135s.075.03.107.066.115.08.2.096.135.047.135.068.062.05.137.07.15.046.16.065c.066.107 3.512 1.775 3.667 1.775.135 0 3-1.38 3.682-1.772l.645-.323 2.764-1.378a7.74 7.74 0 0 1 .325-.166c.142-.069.313-.175.387-.236s.405-.245.737-.4l3.065-1.54 2.55-1.24c.048 0 .318.11.6.247l.856.4c1.13.534 1.73.83 1.75.862.013.02.08.052.15.07.3.072.235.106-1.875 1.126l-4.358 2.163-2.904 1.451c-1.9.9-4 2.004-4.07 2.14-.212.362-.082.784.303.986l.9.47c.355.187 1.256.642 2.003 1l1.428.715a1.46 1.46 0 0 0 .178.092l1.405.696 4.127 2.065a15.44 15.44 0 0 0 .461.234l2.364 1.195c.045.043-.246.277-.344.277-.037 0-.087.02-.112.046s-.32.18-.657.343-.636.316-.666.34a.63.63 0 0 1-.169.077c-.063.02-.125.047-.138.063s-.22.12-.46.234-.47.232-.5.265c-.084.068-.464.08-.528.016-.024-.023-1.4-.72-3.036-1.545l-3.1-1.593c-.082-.077-2.793-1.46-5.04-2.572l-.645-.324c-.364-.205-1.856-.927-1.985-.96-.158-.04-.454.064-.87.312-.038.025-.193.1-.345.174a98.36 98.36 0 0 0-1.518.758l-9.212 4.636c-1.516.762-2.348 1.157-2.44 1.157-.182 0-3.32-1.567-3.32-1.658 0-.067 2.793-1.494 3.024-1.545.072-.016.13-.044.13-.064s1.89-.983 4.203-2.143l4.847-2.447.76-.398c.287-.146.36-.226.414-.447.065-.27.006-.54-.148-.675-.13-.115-10.936-5.5-12.873-6.426-.158-.075-.288-.143-.288-.152-.006-.029-.015-.057-.026-.084-.02-.05.075-.118.357-.252l1.235-.58c.047-.021.093-.044.138-.07a3.53 3.53 0 0 1 .267-.127 19.04 19.04 0 0 0 .668-.321c.637-.32.468-.364 2.52.67m30.8 1.94c0 .064-.018.137-.04.16s-.05.195-.06.38c-.02.348-.152.556-.362.56-.04.001-.09.02-.115.042-.048.045-.712.39-.896.464a2.12 2.12 0 0 0-.184.086c-.236.133-.315.172-2.97 1.48l-2.05 1.018c-.038.024-.1.062-.16.085s-.91.444-1.91.937c-2.398 1.18-2.41 1.187-2.514 1.186-.048 0-.134-.026-.19-.057l-.403-.216c-.44-.234-.427-.255.47-.693l.894-.442c.067-.036.148-.065.18-.065s.094-.032.138-.072c.18-.164 10.1-5.083 10.137-5.027a.4.4 0 0 1 .036.174M9.253 7.081l6.066 3.056c.027.045-.155.212-.3.275-.063.027-.22.1-.345.184s-.258.136-.292.137-.977-.45-2.096-1.004l-5.44-2.667c-.017 0-.063-.03-.1-.07-.042-.04-.097-.064-.155-.069-.047 0-.097-.018-.11-.04s-.144-.096-.3-.164-.297-.143-.335-.167-.12-.065-.184-.092a41.62 41.62 0 0 1-1.197-.595 52.14 52.14 0 0 0-.633-.317c-.868-.43-.795-.345-.795-.925 0-.487.014-.555.11-.555.025 0 2.77 1.36 6.095 3.022m26.814 2.23c0 .777.01.927.07.95s.07.168.07.92c0 .832.006.9.092.985s.092.153.092 1.06c0 .818.01.973.07.995.038.015.07.06.07.1 0 .057-.013.06-.055.018-.03-.03-.132-.055-.225-.055-.11 0-.18-.025-.197-.07s-.094-.07-.253-.07c-.187 0-.23-.016-.25-.092-.017-.067-.063-.092-.167-.092-.096 0-.142-.025-.142-.07s-.048-.07-.16-.07c-.13 0-.16-.018-.16-.092s-.03-.092-.16-.092c-.112 0-.16-.02-.16-.07s-.046-.07-.138-.07-.138-.023-.138-.07-.048-.07-.156-.07c-.117 0-.162-.023-.18-.092s-.063-.092-.167-.092c-.096 0-.142-.025-.142-.07s-.048-.07-.156-.07c-.117 0-.162-.023-.18-.092s-.063-.092-.167-.092c-.096 0-.142-.025-.142-.07s-.048-.07-.156-.07c-.117 0-.162-.023-.18-.092s-.063-.092-.167-.092c-.096 0-.142-.025-.142-.07s-.048-.07-.156-.07c-.117 0-.162-.023-.18-.092s-.063-.092-.167-.092c-.096 0-.142-.025-.142-.07s-.045-.07-.133-.07c-.076 0-.145-.03-.16-.07s-.084-.07-.163-.07c-.096 0-.145-.027-.166-.092s-.07-.092-.16-.092c-.073 0-.142-.03-.157-.07s-.084-.07-.16-.07c-.095 0-.14-.026-.158-.092-.013-.05-.057-.092-.1-.092s-.073-.03-.073-.07c0-.048.048-.07.16-.07.13 0 .16-.017.16-.092s.03-.092.16-.092c.112 0 .16-.02.16-.07s.046-.07.142-.07c.104 0 .15-.025.167-.092s.063-.092.18-.092c.107 0 .156-.02.156-.07s.046-.07.142-.07c.104 0 .15-.025.167-.092s.063-.092.18-.092c.107 0 .156-.02.156-.07s.046-.07.142-.07c.104 0 .15-.025.167-.092s.063-.092.18-.092c.107 0 .156-.02.156-.07s.046-.07.138-.07.138-.023.138-.07.046-.07.142-.07c.104 0 .15-.025.167-.092s.063-.092.18-.092c.107 0 .156-.02.156-.07s.046-.07.142-.07c.104 0 .15-.025.167-.092s.063-.092.18-.092c.107 0 .156-.02.156-.07 0-.038.03-.07.07-.07s.07-.04.07-.092c0-.074.03-.092.16-.092.112 0 .16-.02.16-.07s.048-.07.16-.07c.13 0 .16-.017.16-.092s.03-.092.16-.092c.112 0 .16-.02.16-.07s.048-.07.16-.07c.13 0 .16-.017.16-.092 0-.06.03-.092.092-.092.09 0 .092.03.092.922M7.466 8.718c.09 0 .136.025.153.092s.063.092.162.092c.08 0 .15.03.164.07s.084.07.16.07c.095 0 .14.026.158.092.013.05.057.092.1.092s.073.03.073.07c0 .047.048.07.156.07.117 0 .162.023.18.092s.063.092.167.092c.096 0 .142.025.142.07s.045.07.127.07c.077 0 .15.036.184.092a.22.22 0 0 0 .167.092c.06 0 .122.03.136.07s.084.07.166.07c.093 0 .14.023.14.07s.048.07.156.07c.117 0 .162.023.18.092s.063.092.167.092c.096 0 .142.025.142.07s.048.07.16.07c.13 0 .16.018.16.092s.03.092.16.092c.112 0 .16.02.16.07s.048.07.16.07c.13 0 .16.018.16.092s.03.092.16.092c.112 0 .16.02.16.07s.045.07.132.07c.094 0 .14.027.157.092s.063.092.167.092c.15 0 .2.106.073.155-.038.014-.07.058-.07.097 0 .05-.047.07-.16.07s-.16.02-.16.07-.046.07-.142.07c-.104 0-.15.025-.167.092s-.063.092-.18.092c-.107 0-.156.02-.156.07s-.046.07-.14.07c-.08 0-.15.03-.166.07s-.076.07-.136.07a.22.22 0 0 0-.167.092c-.035.056-.107.092-.184.092s-.127.024-.127.07-.046.07-.142.07c-.104 0-.15.025-.167.092s-.063.092-.18.092c-.107 0-.156.02-.156.07s-.048.07-.16.07c-.13 0-.16.018-.16.092s-.03.092-.16.092c-.112 0-.16.02-.16.07s-.048.07-.16.07c-.13 0-.16.018-.16.092s-.03.092-.16.092c-.112 0-.16.02-.16.07s-.046.07-.14.07c-.08 0-.15.03-.166.07s-.084.07-.164.07c-.1 0-.144.026-.162.092s-.063.092-.18.092c-.107 0-.156.02-.156.07s-.044.07-.12.07-.127.03-.143.092c-.02.077-.063.092-.272.092-.2 0-.248.016-.248.07 0 .038-.03.07-.07.07s-.07-.032-.07-.075.03-.103.07-.14c.056-.056.07-.222.07-.9 0-.687.01-.825.07-.85s.07-.162.07-.87c0-.792.006-.846.092-.9s.092-.107.092-.796c0-.613.012-.742.07-.764.046-.017.07-.096.074-.24.003-.117.015-.175.026-.133.014.052.066.08.15.08m13.44 5.297c.02.576.043.543-.622.87l-1.302.647-.645.323c-.395.206-.794.405-1.197.597-.067.028-.132.06-.196.095-.137.08-.224.122-.817.414l-.645.325c-.038.022-1.178.592-2.533 1.266l-2.535 1.26c-.292.165-1.206.6-1.258.6-.036 0-.09.03-.123.07s-.084.064-.137.069c-.044 0-.132.04-.196.09-.187.147-.764.425-.816.393s-.064-.848-.01-.935c.05-.078 12.86-6.496 12.95-6.487.054.006.072.09.082.398m4.862 1.33l3.544 1.814c.03.037.23.155.445.26l.46.234.645.323.817.41c.044.025.142.074.22.108.572.26 2.992 1.494 3.064 1.56.118.1.137.94.023.985-.075.03-.322-.085-.9-.41-.21-.12-.41-.22-.442-.22-.1 0-4.263-2.1-4.375-2.202-.09-.082-.68-.4-.95-.514-.063-.026-.125-.057-.184-.091a1.28 1.28 0 0 0-.138-.07 1.19 1.19 0 0 1-.138-.065c-.186-.105-.367-.197-1.128-.57a15.41 15.41 0 0 1-.714-.365 3.96 3.96 0 0 0-.207-.1 39.22 39.22 0 0 1-1.35-.675 2.49 2.49 0 0 0-.193-.094 21.48 21.48 0 0 1-1.175-.595.63.63 0 0 0-.161-.071c-.063-.02-.125-.047-.138-.063a3.21 3.21 0 0 0-.345-.19l-.325-.16-.013-.495c-.012-.452-.006-.495.07-.495.046 0 1.655.786 3.574 1.746m-3.994.625c.015.04.084.07.16.07s.146.03.16.07.083.07.154.07c.09 0 .135.027.152.092s.063.092.162.092c.08 0 .15.03.164.07s.084.07.16.07c.095 0 .14.026.158.092s.063.092.167.092c.096 0 .142.025.142.07s.048.07.156.07c.117 0 .162.023.18.092s.063.092.167.092c.096 0 .142.025.142.07s.048.07.156.07c.117 0 .162.023.18.092.016.06.063.092.14.092.063 0 .126.03.14.07s.084.07.16.07.146.03.16.07.084.07.16.07c.095 0 .14.026.158.092s.063.092.167.092c.096 0 .142.025.142.07s.048.07.156.07c.117 0 .162.023.18.092s.063.092.167.092c.096 0 .142.025.142.07s.048.07.156.07c.117 0 .162.023.18.092s.063.092.167.092c.096 0 .142.025.142.07s.048.07.156.07c.117 0 .162.023.18.092s.063.092.167.092c.096 0 .142.025.142.07s.045.07.133.07c.076 0 .145.03.16.07s.084.07.16.07c.095 0 .14.026.158.092s.063.092.167.092c.096 0 .142.025.142.07s.048.07.156.07c.117 0 .162.023.18.092s.063.092.167.092c.096 0 .142.025.142.07 0 .038.03.07.064.07s.074.04.087.092c.017.067.063.092.167.092.096 0 .142.025.142.07s.048.07.156.07c.117 0 .162.023.18.092s.063.092.167.092c.096 0 .142.025.142.07s.048.07.156.07c.117 0 .162.023.18.092s.063.092.167.092c.096 0 .142.025.142.07s.048.07.16.07.16.02.16.07.048.07.16.07c.13 0 .16.018.16.092s.03.092.16.092c.112 0 .16.02.16.07s.046.07.142.07c.104 0 .15.025.167.092s.063.092.157.092c.087 0 .132.024.132.07s.048.07.156.07c.117 0 .162.023.18.092s.063.092.167.092c.096 0 .142.025.142.07s.048.07.156.07c.117 0 .162.023.18.092s.063.092.167.092c.096 0 .142.025.142.07s.048.07.16.07.16.02.16.07.048.07.16.07c.13 0 .16.017.16.092s.03.092.16.092c.112 0 .16.02.16.07s.046.07.142.07c.104 0 .15.025.167.092s.063.092.152.092c.07 0 .14.03.154.07.018.05.092.07.237.07s.218-.022.237-.07c.015-.04.084-.07.164-.07.1 0 .144-.026.162-.092s.063-.092.157-.092c.087 0 .132-.023.132-.07s.048-.07.16-.07c.13 0 .16-.018.16-.092s.03-.092.16-.092c.112 0 .16-.02.16-.07s.02-.048.092.023c.086.086.092.153.092 1.026 0 .737.014.954.066 1.028s.07.303.08.98c.013.78.024.894.095.946s.08.158.08 1.03c0 .788.013.983.067 1.037s.07.25.08.947l.014.88H5.246v-.257c0-.167.024-.28.07-.326.055-.055.07-.21.07-.798 0-.605.012-.733.07-.755s.07-.16.07-.857c0-.77.007-.837.092-.922s.092-.153.092-.893c0-.67.01-.805.07-.827s.07-.125.07-.534c0-.447.01-.52.092-.6.056-.056.092-.153.092-.247 0-.085.03-.18.07-.213s.07-.133.07-.236c0-.173.005-.178.16-.178.112 0 .16.02.16.07s.048.07.156.07c.117 0 .162.023.18.092s.063.092.162.092c.08 0 .15.03.164.07.018.047.092.07.235.07.155 0 .21-.017.21-.07s.048-.07.16-.07c.13 0 .16-.017.16-.092s.03-.092.16-.092c.112 0 .16-.02.16-.07s.048-.07.16-.07c.13 0 .16-.017.16-.092s.03-.092.16-.092c.112 0 .16-.02.16-.07s.048-.07.16-.07.16-.02.16-.07.046-.07.142-.07c.104 0 .15-.025.167-.092s.063-.092.18-.092c.107 0 .156-.02.156-.07s.046-.07.138-.07c.107 0 .138-.02.138-.092s.03-.092.16-.092c.112 0 .16-.02.16-.07s.048-.07.16-.07c.13 0 .16-.018.16-.092s.03-.092.16-.092c.112 0 .16-.02.16-.07s.048-.07.16-.07c.13 0 .16-.018.16-.092s.03-.092.16-.092c.112 0 .16-.02.16-.07s.048-.07.16-.07.16-.02.16-.07.046-.07.142-.07c.104 0 .15-.025.167-.092s.063-.092.158-.092c.077 0 .146-.03.16-.07s.084-.07.164-.07c.1 0 .144-.026.162-.092s.063-.092.157-.092c.087 0 .132-.023.132-.07s.048-.07.16-.07c.13 0 .16-.017.16-.092s.03-.092.16-.092c.112 0 .16-.02.16-.07s.048-.07.16-.07c.13 0 .16-.018.16-.092s.03-.092.16-.092c.112 0 .16-.02.16-.07s.048-.07.16-.07c.13 0 .16-.018.16-.092s.03-.092.16-.092c.112 0 .16-.02.16-.07s.046-.07.14-.07c.08 0 .15-.03.166-.07s.084-.07.164-.07c.1 0 .144-.026.162-.092s.063-.092.157-.092c.087 0 .132-.024.132-.07s.046-.07.142-.07c.104 0 .15-.025.167-.092s.063-.092.18-.092c.107 0 .156-.02.156-.07s.048-.07.16-.07c.13 0 .16-.017.16-.092s.03-.092.16-.092c.112 0 .16-.02.16-.07s.046-.07.142-.07c.104 0 .15-.025.167-.092s.063-.092.18-.092c.107 0 .156-.02.156-.07s.046-.07.14-.07c.08 0 .15-.03.166-.07s.076-.07.136-.07a.22.22 0 0 0 .167-.092c.034-.054.107-.092.18-.092s.134-.03.15-.07.08-.07.15-.07c.082 0 .13-.03.145-.092.018-.07.063-.092.18-.092.107 0 .156-.02.156-.07s.046-.07.142-.07c.104 0 .15-.025.167-.092s.063-.092.18-.092c.107 0 .156-.02.156-.07s.046-.07.142-.07c.104 0 .15-.025.167-.092s.063-.092.18-.092c.107 0 .156-.02.156-.07s.046-.07.14-.07c.08 0 .15-.03.166-.07.02-.048.094-.07.253-.07s.235.02.253.07M3.974 18.738l.868.434c.25.143 1.184.6 1.226.6.028 0 .077.03.11.07s.09.07.132.07c.225 0 .327.21.327.67 0 .535-.03.56-.432.343a106.39 106.39 0 0 0-2.472-1.245c-.704-.34-.69-.32-.69-.844 0-.607-.087-.598.928-.096m35.84-.202c.127.64.042.79-.63 1.113-1.213.582-1.997.976-2.173 1.09-.67.43-.752.414-.756-.152-.002-.493-.004-.5.4-.698l.325-.165c.072-.04.812-.406 1.128-.558l.875-.446c.746-.386.78-.394.824-.182m-.314 10.17c.047 0 .066.057.066.202 0 .123.027.224.07.26s.07.122.07.202a.49.49 0 0 0 .062.236c.034.05.074.168.09.263l.027.172h-.362v-.53c0-.43-.013-.536-.07-.557-.047-.018-.067-.086-.064-.217.003-.105.015-.154.026-.1s.05.08.087.08M3.498 29.849c0 .176-.014.207-.092.207-.11 0-.125-.145-.023-.23.038-.03.07-.086.07-.12s.01-.063.023-.063.023.093.023.207m37.203 1.302c.445.2 1.022.687 1.022.88 0 .05.02.103.045.12.2.123.368 2.838.203 3.267-.037.096-40.808.114-40.905.017-.194-.194-.024-3.353.18-3.353.022 0 .04-.027.04-.062 0-.168.72-.774.998-.84a.78.78 0 0 0 .177-.067c.094-.073.716-.075 19.18-.07l18.813.005.245.105M3.28 32.787c-.217.154-.3.498-.19.758.27.617 1.233.415 1.233-.258 0-.506-.618-.803-1.044-.5m2.374.002c-.25.23-.314.478-.192.728.348.71 1.404.392 1.236-.372-.09-.413-.743-.635-1.044-.355m2.334.058c-.56.578.278 1.486.852.92.21-.206.23-.25.23-.486s-.02-.28-.23-.486c-.195-.192-.642-.166-.852.05m33.973 3.512c.118.118.085 24.972-.034 25.293a2.16 2.16 0 0 1-1.265 1.265c-.253.094-.263.094-19.16.094-20.83 0-18.906.024-19.48-.245-.206-.096-.69-.582-.8-.792-.242-.5-.226.53-.212-13.077l.012-12.548.115-.032c.234-.065 40.748-.024 40.813.042m-38.342 9.66c-.02.02-.034 1.224-.034 2.676v2.64h.875l.001-.956c0-.526.016-.98.034-1.007s.286-.06.725-.074c.52-.017.725-.04.83-.1.076-.04.166-.076.2-.076.392-.002.927-.86.927-1.49 0-.497-.35-1.264-.58-1.273-.028-.001-.104-.043-.168-.094a.42.42 0 0 0-.175-.092.29.29 0 0 1-.146-.079c-.094-.085-2.41-.16-2.487-.08m22.66.512c-.07.018-.08.083-.08.522 0 .57-.043.644-.377.644-.207 0-.267.086-.267.38 0 .243.1.355.317.355.328 0 .327-.003.327.965 0 1.142.127 1.648.45 1.795.057.026.104.065.104.087 0 .082.732.212.89.16a3.02 3.02 0 0 1 .319-.079c.192-.032.23-.153.102-.322a.38.38 0 0 1-.067-.192c0-.207-.036-.234-.3-.214-.514.04-.63-.204-.63-1.308v-.802l.118-.045c.065-.025.26-.045.437-.045.367 0 .382-.02.357-.463l-.014-.25-.374-.024c-.517-.034-.524-.04-.524-.644 0-.4-.013-.5-.073-.524-.082-.03-.6-.03-.722.004m-20.516.363c.62.12.755 1.024.206 1.387-.195.13-1.188.197-1.38.095-.117-.063-.156-1.356-.044-1.468.063-.063.912-.073 1.217-.014m7.904.818c-.107.065-.196.136-.196.158 0 .062-.282.193-.324.15-.02-.02-.044-.1-.052-.177l-.015-.138-.34-.014c-.242-.01-.35.004-.38.046-.064.1-.05 5.12.016 5.186s.607.074.73.008c.105-.056.137-1.5.038-1.717-.039-.069-.036-.155.008-.221.035-.066.066-.086.075-.052s.045.057.076.057.134.07.23.152c.35.312 1.272.365 1.6.092.04-.033.092-.06.116-.06s.08-.036.12-.08a8.55 8.55 0 0 1 .199-.196c.908-.865.624-2.663-.506-3.197-.37-.174-1.106-.172-1.397.002m4.605 0c-.107.065-.196.136-.196.158 0 .062-.282.193-.324.15-.02-.02-.044-.1-.052-.177l-.015-.138-.34-.014c-.242-.01-.35.004-.38.046-.064.1-.05 5.12.016 5.186s.607.074.73.008c.105-.056.137-1.5.038-1.717-.039-.069-.036-.155.008-.221.035-.066.066-.086.075-.052s.045.057.076.057.134.07.23.152c.35.312 1.272.365 1.6.092.04-.033.092-.06.116-.06s.08-.036.12-.08.132-.132.2-.196c.908-.865.624-2.663-.506-3.197-.37-.174-1.106-.172-1.397.003m4.26-.03a.86.86 0 0 1-.222.092c-.1 0-.677.628-.8.875a2.13 2.13 0 0 0 .37 2.252c.086.09.374.28.42.28.02 0 .062.03.09.064s.15.078.27.095a2.33 2.33 0 0 1 .366.083c.253.09 1.11-.118 1.352-.326l.184-.158c.066-.056.174-.177.24-.267l.122-.165-.333-.17c-.406-.206-.337-.212-.62.055-.56.525-1.525.285-1.717-.426-.095-.355-.113-.35 1.415-.35h1.304v-.41c0-.307-.017-.423-.07-.466a.25.25 0 0 1-.069-.171c0-.665-1.592-1.276-2.314-.89m7.29.003c-.088.05-.186.09-.217.09-.077 0-.705.632-.705.71 0 .034-.04.114-.092.178-.056.07-.092.187-.092.294 0 .1-.02.247-.044.33-.06.208.032.85.156 1.1.136.264.407.617.476.62.032.001.093.043.137.094s.113.092.155.092.1.03.13.065.14.08.25.096a2.31 2.31 0 0 1 .34.08c.175.06 1.042-.08 1.126-.18.027-.034.075-.06.105-.06.08 0 .582-.46.625-.57.04-.104-.15-.265-.38-.325-.068-.017-.123-.05-.123-.076 0-.09-.176-.042-.25.07-.435.665-1.72.418-1.842-.354-.047-.292-.067-.288 1.39-.314l1.322-.023.013-.332c.01-.257-.007-.38-.08-.54-.052-.114-.094-.23-.094-.258a.22.22 0 0 0-.057-.115 3.37 3.37 0 0 1-.17-.22c-.12-.164-.252-.26-.6-.433-.29-.143-1.223-.15-1.473-.01m4.282-.017c-.955.444-1.385 1.315-1.146 2.32.054.226.114.41.133.41s.047.05.063.1c.037.15.46.573.65.653.085.035.166.083.18.106s.124.055.245.072a2.41 2.41 0 0 1 .366.082c.276.096 1.123-.122 1.378-.355a1.83 1.83 0 0 1 .15-.116c.227-.157.387-.507.234-.507-.022 0-.147-.062-.276-.138-.294-.173-.26-.18-.542.086-.507.476-1.374.33-1.67-.282-.234-.484-.215-.49 1.363-.505l1.332-.013-.004-.3a2 2 0 0 0-.206-.83 1.71 1.71 0 0 1-.087-.172c-.024-.056-.065-.104-.09-.104s-.056-.038-.07-.085c-.028-.088-.34-.304-.63-.437-.235-.107-1.144-.107-1.375 0m4.738.028c-.09.056-.246.18-.344.275-.237.23-.34.176-.34-.178 0-.112-.004-.114-.357-.1l-.357.014-.024 3.615h.876l.001-1.025c.002-1.318.072-1.58.487-1.78l.214-.104c.1-.053.484-.048.518.006.053.086.2-.06.23-.227.015-.1.062-.243.104-.34.1-.233.055-.26-.447-.26-.323.001-.42.02-.558.103m-30.912.018c-.017.017-.03.64-.03 1.385v1.354l.122.262c.316.68 1.338.97 1.862.53.04-.034.09-.06.114-.06s.11-.076.192-.17c.176-.197.236-.172.275.118l.025.2h.77v-3.6l-.105-.026a2.14 2.14 0 0 0-.403-.013l-.298.014-.023 1.036c-.016.706-.04 1.068-.08 1.137a.49.49 0 0 0-.06.184c-.008.392-.804.722-1.19.494-.33-.194-.35-.28-.366-1.58-.01-.712-.034-1.2-.063-1.235-.05-.06-.685-.084-.742-.027m15.637.6c.226.05.534.35.552.534l.014.138-.9.012c-.71.01-.91 0-.915-.046-.042-.45.62-.787 1.258-.638m7.238-.013c.285.04.642.36.62.557l-.015.127h-1.797l-.015-.104c-.01-.076.05-.166.22-.33.275-.265.485-.317.987-.25m4.32.012a.65.65 0 0 1 .364.212c.417.43.37.46-.694.46h-.898l-.014-.117c-.02-.163.35-.538.557-.564.273-.034.515-.03.685.008m-20.623.074c.038.038.1.07.137.07a1.13 1.13 0 0 1 .445.414c0 .03.03.084.07.122.3.3-.033 1.275-.52 1.526-.82.424-1.86-.563-1.465-1.392a.94.94 0 0 0 .073-.194c.001-.346 1.018-.787 1.26-.546m4.605 0c.038.038.1.07.137.07a1.13 1.13 0 0 1 .445.414c0 .03.03.084.07.122.3.3-.033 1.275-.52 1.526-.82.424-1.86-.563-1.465-1.392.04-.085.073-.175.073-.194.001-.346 1.018-.787 1.26-.546" fill="#050908"/><path d="M6.822 1.533l-.622.298-.83.392-1.315.598c-.024 0-.042.047-.042.104.001.103.132.177 1.357.758l.3.15 1.428.69c.063.026.124.056.184.089l.335.167c.146.07.276.142.288.162s.084.05.16.067.137.05.137.072.023.042.05.042.24.095.472.2l.65.335c.05.03.144.075.207.102l.888.436c.145.07.276.142.288.162s.084.05.16.067.137.05.137.072.022.042.05.042a10.5 10.5 0 0 1 .965.462l.783.391.783.392a136.46 136.46 0 0 0 1.428.714l1.428.71.328.16c.822.4.732 1.05-.206 1.524l-1.066.55-4.56 2.3-3.984 2.004-1.577.786-1.51.787a60.91 60.91 0 0 0 3.303 1.66c.03 0 .26-.1.507-.224l7.566-3.809 5.955-3c.19-.094.566-.05.698.082.01.01 1.3.658 2.843 1.438l2.892 1.457.484.242 1.124.605c.03.035.555.316 1.168.626l1.185.6 1.542.772 2.463 1.219c.087 0 3.2-1.557 3.272-1.63.044-.053-3.51-1.856-10.175-5.16l-2.303-1.175c-.632-.326-.75-.455-.75-.82 0-.456-.077-.404 2.522-1.704l2.364-1.21c.008-.02.036-.034.062-.034.04 0 1.032-.48 1.235-.6.038-.022.333-.168.656-.324s.598-.3.61-.32.085-.05.16-.068.137-.05.137-.072.023-.042.05-.042c.055 0 .866-.396 1.135-.554.049-.028.099-.052.152-.072.04-.013.184-.083.325-.155l.504-.253a6.71 6.71 0 0 0 .325-.166 1.19 1.19 0 0 1 .138-.071c.403-.183.802-.375 1.197-.574.044-.027.09-.051.138-.071.332-.136 1.68-.833 1.68-.87 0-.025-.047-.052-.104-.06s-.104-.034-.104-.057-.202-.137-.45-.255l-2.376-1.141c-.376-.182-.627-.12-1.496.372l-2.432 1.226-2.386 1.224c-.013.02-.056.037-.096.037s-.158.068-.262.15-.862.49-1.686.902l-1.566.79c-.038.022-.27.135-.517.25s-.46.23-.475.255-.065.044-.11.044-.108.03-.14.066-.115.08-.2.096-.135.047-.135.068-.06.052-.135.068a.5.5 0 0 0-.2.096c-.04.036-.092.066-.14.066s-.094.017-.107.038c-.018.03-1.6.828-2.32 1.173-.137.065-.974-.275-1.622-.66-.038-.025-.183-.095-.325-.16s-.45-.222-.69-.346-.463-.226-.495-.227-.057-.02-.057-.043-.062-.056-.137-.072-.15-.046-.16-.065-1.083-.566-2.383-1.218l-2.585-1.31c-.044-.024-.265-.132-.5-.24l-.634-.314c-1.898-.98-4.785-2.394-4.875-2.4a1.32 1.32 0 0 0-.368.134m32.17 2.947c-.456.228-.855.414-.887.414s-.057.02-.057.045-.057.06-.127.075-.157.056-.196.087a.63.63 0 0 1-.184.092c-.063.02-.138.052-.166.074-.104.082-.486.27-.55.27-.037 0-.067.02-.067.045s-.057.06-.127.075c-.064.014-.125.038-.181.072a11.17 11.17 0 0 1-1.198.59c-.033 0-.06.02-.06.045s-.057.06-.127.075-.157.056-.196.087a.64.64 0 0 1-.184.092c-.063.02-.125.048-.138.064-.176.114-.363.208-.56.28-.025 0-.076.03-.114.07s-.097.064-.155.069c-.047 0-.097.017-.1.04s-.29.17-.613.327l-.657.326c-.197.104-.396.202-.599.294a4 4 0 0 0-.3.162c-.128.074-.265.136-.307.138s-.083.02-.092.04-.285.17-.614.33-.626.32-.66.354c-.04.036-.091.057-.144.06a.21.21 0 0 0-.14.069c-.03.038-.08.07-.1.07a.91.91 0 0 0-.224.092c-.094.052-.2.092-.235.092s-.09.03-.12.07-.094.07-.138.07c-.052.004-.101.027-.136.066-.03.036-.115.08-.2.096s-.135.047-.135.068-.075.062-.16.092c-.196.065-.212.187-.034.267.225.1.402.206.436.258.05.078.43.053.52-.034a.27.27 0 0 1 .159-.076c.053-.003.102-.027.138-.066a.39.39 0 0 1 .187-.095.41.41 0 0 0 .187-.095c.031-.035.078-.065.107-.065.044.001.592-.252.812-.375a8.02 8.02 0 0 1 .325-.16 8.71 8.71 0 0 0 .325-.162 1.04 1.04 0 0 1 .138-.067.98.98 0 0 0 .138-.068 5.39 5.39 0 0 1 .325-.161c.11-.05.219-.104.325-.162a1.76 1.76 0 0 1 .184-.094c.063-.028.124-.058.184-.092.044-.026.09-.049.138-.069l1.312-.642 1.36-.663a2.83 2.83 0 0 0 .196-.094 7.03 7.03 0 0 1 .495-.254l.783-.4c.038-.022.535-.27 1.105-.552l1.105-.55.426-.215.357-.177v-.33c0-.237.02-.346.07-.387.07-.058.098-.325.034-.325-.02 0-.407.186-.863.414m-35.89.15l.013.518 2.05 1.02 8.052 3.996c1.03.51 1.248.592 1.31.494.015-.024.157-.106.318-.185.527-.256.528-.287.023-.534l-.5-.253c-.038-.023-.328-.168-.645-.324l-.645-.322c-.038-.025-.4-.2-.783-.392l-.783-.39a27.63 27.63 0 0 0-.645-.322l-1.352-.674-1.412-.713a3.97 3.97 0 0 0-.207-.1 39.04 39.04 0 0 1-1.35-.675 2.28 2.28 0 0 0-.189-.093 42.82 42.82 0 0 1-1.205-.598l-.645-.323-.645-.32c-.807-.436-.79-.44-.773.195m19.066 9.024c-.075.075-.073.777.003.88.032.042 1.63.863 3.55 1.823l3.592 1.837c.084.077 3.766 1.93 4.616 2.325a13.48 13.48 0 0 1 .614.311c.476.257.466.262.466-.246 0-.557.266-.375-2.9-1.96l-2.823-1.46c-.066-.06-.15-.112-.187-.112s-.067-.02-.067-.046-.023-.046-.05-.046c-.044 0-.767-.347-.962-.462l-.636-.321-.645-.32-3.14-1.57c-.038-.022-.334-.168-.658-.326s-.6-.303-.613-.324c-.033-.053-.082-.047-.147.017m-1.445.026c-.008.02-.202.126-.43.236l-.484.237c-.315.17-1.182.597-1.212.596-.02 0-.07.03-.107.07-.042.04-.097.064-.155.069-.047 0-.097.018-.1.04s-.29.17-.613.327l-.658.326c-.374.203-1.187.597-1.232.597-.032 0-.057.02-.057.045s-.057.06-.127.075-.157.056-.196.087a.66.66 0 0 1-.182.092c-.065.02-.125.054-.176.098a.24.24 0 0 1-.146.063c-.052.003-.101.026-.137.064a.38.38 0 0 1-.175.094.46.46 0 0 0-.186.096.25.25 0 0 1-.15.067.21.21 0 0 0-.14.069c-.03.038-.094.07-.138.07a.2.2 0 0 0-.134.064c-.03.035-.1.08-.178.096s-.15.05-.176.074c-.098.08-.484.275-.55.275-.037 0-.067.02-.067.045s-.057.06-.127.076a.75.75 0 0 0-.236.116.4.4 0 0 1-.196.085c-.048 0-.086.02-.086.045s-.057.06-.127.075-.157.056-.196.087a.66.66 0 0 1-.182.092c-.065.02-.125.054-.176.098-.035.035-.102.063-.15.063s-.1.02-.114.046-.146.1-.29.166a8.57 8.57 0 0 0-.331.158c-.197.103-.397.201-.599.293a4 4 0 0 0-.3.162c-.128.074-.266.136-.31.138s-.08.023-.08.048-.057.06-.127.075a.51.51 0 0 0-.18.075c-.03.025-.29.162-.576.307l-.522.265-.013.446c-.012.428.042.577.147.406.013-.022.144-.1.3-.172s.282-.158.302-.2.074-.058.12-.058.136-.04.2-.092.144-.092.176-.092a782.04 782.04 0 0 0 8.516-4.235 47.28 47.28 0 0 1 2.103-1.016c.03 0 .06-.016.07-.037s.236-.146.506-.277.503-.272.518-.31c.1-.267-.013-1.057-.118-.81m-17.63 5.137c0 .518-.007.51.69.846l1.428.703a1.04 1.04 0 0 0 .138.067c.038.014.1.043.138.065l.207.111.49.26c.42.224.41.232.41-.293 0-.48-.017-.51-.437-.7a7.05 7.05 0 0 1-.299-.149c-.038-.022-.1-.05-.138-.065s-.1-.045-.138-.07-.12-.063-.184-.09-.125-.056-.184-.092a1.17 1.17 0 0 0-.138-.075 1.12 1.12 0 0 1-.138-.07c-.038-.025-.12-.066-.184-.094a2.05 2.05 0 0 1-.184-.092 1.06 1.06 0 0 0-.138-.067c-.047-.019-.093-.041-.138-.066-.075-.045-.492-.248-.6-.294-.038-.016-.16-.08-.272-.144-.32-.18-.327-.173-.327.315m36.56-.39c-.02.048-1.14.607-1.218.607-.03 0-.062.017-.07.037s-.15.104-.315.186l-.368.188c-.038.022-.354.18-.7.35s-.642.344-.653.385c-.034.118-.015.79.025.812s.582-.25.74-.378c.034-.025.113-.066.175-.085a.51.51 0 0 0 .176-.097c.034-.034.102-.063.15-.063s.097-.018.11-.04.144-.097.3-.166c.113-.053.225-.108.335-.167.044-.026.091-.048.138-.067a5.94 5.94 0 0 0 .258-.115c.075-.039.155-.068.238-.088.027 0 .055-.016.064-.035.022-.05.494-.287.57-.287.11 0 .158-.17.158-.57 0-.337-.048-.534-.1-.405" fill="#04d49f"/><path d="M2.562 31.223a1.87 1.87 0 0 0-.607.269l-.216.16a.68.68 0 0 0-.189.184c-.069.15-.151.294-.247.429-.098.118-.143.706-.144 1.862l-.001 1.163h40.72l-.036-2.832-.117-.207c-.245-.433-.287-.49-.476-.634a4.29 4.29 0 0 0-.42-.276l-.226-.127-18.95-.005c-10.423-.002-19.013.003-19.09.012m1.396 1.31c.653.297.68 1.094.052 1.452-.31.175-.964-.01-.964-.274 0-.02-.03-.07-.07-.108-.18-.18-.048-.726.23-.937.306-.234.467-.262.752-.132m2.44.02c.616.307.6 1.126-.046 1.453-.584.3-1.408-.6-1.002-1.082.173-.2.33-.35.392-.35.037 0 .067-.02.067-.042 0-.105.36-.092.59.022m2.404.012c.597.367.56 1.116-.067 1.436-.36.183-.6.092-1-.364-.136-.16-.104-.57.06-.785.297-.388.67-.494 1.006-.287m-7.66 3.908c-.067.067-.035 24.612.033 24.93.154.718.675 1.25 1.387 1.408.415.094 37.55.093 37.925-.001a1.79 1.79 0 0 0 1.361-1.361c.064-.258.105-24.862.04-24.965-.03-.048-40.7-.06-40.748-.01m4.7 9.415c.395.092.8.307.99.524.202.23.265.317.265.36 0 .026.036.087.08.136.126.14.118 1.234-.01 1.46-.214.375-.68.83-.857.83a.45.45 0 0 0-.161.076c-.09.058-.28.082-.84.104l-.723.027-.025 1-.034 1.002c-.034.043-1.012.003-1.06-.044-.094-.094-.078-5.28.017-5.415.082-.118 1.902-.157 2.357-.05m21.38 1.1l.023.53.366.014c.478.017.486.026.486.516s-.008.498-.486.516l-.366.014-.014.645c-.026 1.165.04 1.313.542 1.244l.22-.03.078.222c.198.562.197.7-.007.792s-.953.125-1.092.034a.45.45 0 0 0-.182-.074c-.1 0-.505-.428-.575-.625-.044-.124-.073-.5-.092-1.194l-.027-1.013-.253-.024c-.365-.034-.368-.04-.368-.503 0-.475.017-.498.37-.518l.252-.014.012-.484c.017-.654-.032-.604.574-.59l.52.013.023.53m-22.628-.023c-.017.017-.03.327-.03.69v.66h.533c.487 0 .55-.01.732-.117.442-.26.457-.923.027-1.165-.177-.1-1.177-.154-1.262-.07m10.193.524c.2.05.35.112.36.137s.04.045.072.045c.08 0 .626.5.626.574 0 .032.03.085.07.117s.07.09.07.13.036.11.08.16c.07.077.08.187.08.8v.72l-.174.325c-.158.29-.58.76-.687.76-.023 0-.072.03-.11.07-.047.041-.107.066-.169.07-.055.001-.14.032-.2.07-.06.046-.206.067-.463.067s-.402-.02-.463-.067c-.05-.037-.123-.068-.164-.07s-.144-.062-.23-.136c-.222-.194-.227-.178-.227.785 0 1.1.022 1.054-.516 1.054-.653 0-.59.306-.59-2.815 0-3.07-.06-2.758.523-2.758.416 0 .474.02.562.19.065.126.072.128.156.052a1.01 1.01 0 0 1 .497-.284c.344-.11.47-.11.887-.001m4.605 0c.2.05.35.112.36.137s.04.045.072.045c.08 0 .626.5.626.574 0 .032.03.085.07.117s.07.09.07.13.036.11.08.16c.07.077.08.187.08.8l-.001.72-.174.325c-.158.29-.58.76-.687.76-.023 0-.072.03-.11.07-.047.041-.107.066-.169.07-.055.001-.14.032-.2.07-.06.046-.206.067-.463.067s-.402-.02-.463-.067c-.05-.037-.123-.068-.164-.07s-.144-.062-.23-.136c-.222-.194-.227-.178-.227.785 0 1.1.022 1.054-.516 1.054-.653 0-.59.306-.59-2.815 0-3.07-.06-2.758.523-2.758.416 0 .474.02.562.19.065.126.072.128.156.052a1.01 1.01 0 0 1 .497-.284c.344-.11.47-.11.887-.001m4.214-.023a1.14 1.14 0 0 0 .284.067c.054 0 .13.032.17.07s.1.07.135.07c.35 0 .86.903.875 1.548.013.6.114.57-1.45.57h-1.28v.106c0 .342.432.63.943.63h.386l.236-.23c.284-.277.32-.28.747-.05.333.18.408.27.317.382-.252.313-.382.438-.615.592-.15.1-.298.18-.33.18s-.14.033-.237.074c-.212.088-1.04.075-1.132-.018a.26.26 0 0 0-.158-.056.27.27 0 0 1-.166-.063.49.49 0 0 0-.17-.097c-.442-.14-.972-1.075-.972-1.714 0-.712.544-1.69 1.022-1.836a.62.62 0 0 0 .17-.084c.208-.167.927-.25 1.226-.143m7.338.004a2.44 2.44 0 0 1 .376.114 2.91 2.91 0 0 0 .208.103c.46.208.81.832.84 1.5.03.645.136.6-1.42.6h-1.264v.12c0 .132.25.48.344.48.032 0 .085.03.117.07.195.235.978.04 1.235-.3.102-.138.677.037.95.29.133.124-.704.963-.96.963-.078.013-.154.036-.226.069-.707.295-2.037-.224-2.334-.91-.025-.058-.053-.115-.084-.171-.282-.49-.254-1.302.066-1.935.177-.348.86-.915 1.114-.924a1.07 1.07 0 0 0 .24-.063c.225-.085.464-.084.82.002m4.3.014c.512.13 1.096.55 1.096.782 0 .028.02.05.044.05s.066.082.093.182.07.195.094.2c.072.044.057.968-.017 1.03-.04.034-.492.055-1.35.063l-1.286.012.008.126c.01.14.225.45.314.45.032 0 .084.03.115.07.18.217.946.057 1.197-.25.066-.082.158-.14.22-.14.126 0 .75.322.782.404.063.16-.75.93-.99.934-.043.001-.13.03-.194.067-.162.092-.944.092-1.122 0a.62.62 0 0 0-.208-.07c-.294 0-1.055-.744-1.133-1.107a.71.71 0 0 0-.086-.224c-.15-.187-.047-1.198.156-1.524a2.02 2.02 0 0 0 .106-.207 2.08 2.08 0 0 1 .662-.632.53.53 0 0 0 .155-.093c.122-.17.896-.244 1.34-.13m4.457-.01c.3.112.347.225.208.492-.046.099-.079.204-.098.312-.037.235-.062.246-.53.246-.443 0-.595.068-.73.327-.038.073-.1.148-.115.166s-.052.483-.06 1.173c-.01.814-.03 1.15-.07 1.175-.065.04-.867.048-.972.008-.065-.025-.073-.234-.073-1.887 0-2.153-.056-1.954.548-1.954.394 0 .465.04.465.272 0 .118.086.09.36-.12.11-.083.234-.152.276-.152s.13-.03.192-.064c.16-.088.35-.087.597.005m-30.903.15c.03.055.048.557.05 1.3.002 1.184.004 1.215.104 1.33.344.397.836.356 1.143-.095.107-.157.11-.192.133-1.328.025-1.387-.016-1.3.62-1.3.58 0 .53-.18.53 1.938 0 2.128.055 1.94-.56 1.92l-.43-.013-.014-.196c-.017-.232-.027-.236-.175-.06-.287.34-1.24.56-1.517.35-.05-.037-.123-.068-.165-.07-.246-.005-.586-.474-.734-1.015-.116-.42-.128-2.593-.016-2.753.1-.146.955-.157 1.032-.013m14.06.787c-.16.064-.536.46-.486.5.025.025.39.037.846.03.856-.014.922-.037.707-.253-.036-.036-.065-.085-.065-.108s-.022-.042-.05-.042-.103-.04-.167-.092c-.127-.1-.582-.126-.784-.045m7.283.033c-.232.132-.272.166-.376.316-.14.2-.134.202.757.202.88 0 .92-.016.693-.28-.265-.31-.76-.418-1.074-.238m4.264-.013a4.17 4.17 0 0 1-.182.1c-.1.055-.275.264-.277.35-.002.08 1.544.132 1.62.055.04-.04-.16-.38-.24-.4a1.82 1.82 0 0 1-.184-.094 1.08 1.08 0 0 0-.737-.001m-20.527.065c-1.015.327-.76 2.03.305 2.03.142 0 .244-.025.28-.07.03-.038.088-.07.125-.07.207 0 .52-.545.52-.905 0-.375-.332-.937-.553-.937a.34.34 0 0 1-.163-.067c-.112-.085-.21-.08-.514.017m4.605 0c-1.015.327-.76 2.03.305 2.03.142 0 .244-.025.28-.07.03-.038.088-.07.125-.07.207 0 .52-.545.52-.905 0-.375-.332-.937-.553-.937-.04 0-.114-.03-.163-.067-.112-.085-.21-.08-.514.017" fill="#f7f7f7"/><path d="M6.935 1.446c-.076.05-.116.09-.09.09s.09-.03.138-.067.15-.067.225-.067a.43.43 0 0 1 .225.067c.047.037.11.067.138.067s-.02-.04-.102-.092c-.186-.113-.36-.112-.54.003m28.46-.003c-.076.05-.117.09-.092.1s.086-.032.135-.07c.114-.086.345-.084.46.003.05.037.11.067.138.067s-.02-.04-.102-.092a.46.46 0 0 0-.54 0m-27.393.276c.147.104.492.275.515.25.01-.01-.1-.08-.247-.152-.332-.162-.385-.182-.267-.098m26.8.01c-.05.037-.07.067-.043.067s.086-.03.135-.067.07-.067.043-.067-.086.03-.135.067m-26.1.347a.61.61 0 0 0 .184.092c.025 0-.022-.04-.105-.092-.195-.12-.26-.12-.08 0m25.42.003c-.076.05-.117.088-.092.088s.108-.04.184-.09.117-.1.092-.088-.108.042-.184.09m-29.152.295c-.05.037-.07.067-.043.067s.086-.03.135-.067.07-.067.043-.067-.086.03-.135.067m4.332-.01c.138.098.492.273.512.253.01-.01-.1-.078-.247-.152-.322-.163-.386-.187-.265-.1m23.902.174c-.076.05-.117.09-.092.09s.108-.04.184-.09.117-.09.092-.09-.108.04-.184.09m-28.652.025c-.05.037-.07.067-.043.067s.086-.03.135-.067.07-.067.043-.067-.086.03-.135.067m5.316.1c0 .03.282.17.303.15.01-.01-.054-.052-.142-.095s-.16-.067-.16-.055m22.958.072c-.076.05-.117.088-.092.088s.108-.04.184-.09.117-.1.092-.088-.108.042-.184.09m-28.866.123c-.044.07.04.243.12.242.04 0 .042-.01.003-.034-.03-.02-.06-.086-.07-.15-.01-.077-.028-.096-.052-.058m6.55.13c0 .01.108.072.24.136s.216.092.187.063c-.06-.06-.427-.23-.427-.2m28.565.027c.006.03-.125.126-.297.217s-.3.172-.292.18c.035.035.67-.335.67-.39 0-.032-.02-.06-.046-.06s-.04.023-.034.052m-34.852.154c.05.037.1.067.135.067s.006-.03-.043-.067-.1-.067-.135-.067-.006.03.043.067m27.676.027c-.076.05-.117.088-.092.088s.108-.04.184-.09.117-.1.092-.088-.108.042-.184.09m-27.19.198c.05.042.32.167.32.146s-.255-.164-.305-.164c-.018 0-.024.008-.014.017m33.202.262c-.088.05-.135.09-.105.09s.123-.04.206-.092c.193-.117.1-.115-.102.002m-32.075.286c.107.08.437.223.437.2 0-.012-.098-.067-.22-.122-.307-.14-.325-.145-.22-.068m33.03.537c-1.042.518-1.108.556-.986.556.04 0 .104-.03.142-.07s.086-.07.107-.07.41-.186.867-.414l.863-.414c.064 0 .035.264-.034.325-.05.04-.07.15-.07.387v.33l-.357.177-.426.215-1.105.55-1.105.552-.783.39-.495.254-.196.094-1.36.663-1.312.642a1.16 1.16 0 0 0-.138.069l-.184.092a1.76 1.76 0 0 0-.184.094l-.331.161c-.217.098-.375.2-.3.2l.774-.374.847-.414a1.39 1.39 0 0 0 .16-.084c.037-.024.96-.482 2.05-1.018l2.97-1.48.184-.086c.184-.075.848-.42.896-.464.024-.025.076-.04.115-.042.21-.005.344-.212.362-.56.01-.185.036-.355.06-.38.05-.053.053-.257.005-.334-.025-.04-.325.1-1.038.444m-35.784-.38a4.25 4.25 0 0 0 .004 1.045c.02.012.028-.217.02-.5l-.014-.53.117.022c.064.012.106.005.092-.017-.03-.047-.175-.05-.218-.01m.512.2c.195.12.26.12.08 0a.61.61 0 0 0-.184-.092c-.025 0 .022.04.105.092m32.986.003c-.088.05-.135.09-.105.09s.123-.04.206-.092c.193-.117.1-.115-.102.002m-7.233.226c-.087.075-.184.137-.214.138s-.066.02-.08.044.01.032.055.02c.078-.02.474-.336.424-.337-.014 0-.096.06-.184.136m-25.164.07c.05.037.1.067.135.067s.006-.03-.043-.067-.1-.067-.135-.067-.006.03.043.067m3.313.162c.23.117.27.117.092 0-.076-.05-.168-.092-.205-.092s.014.04.113.092m6.506 0c.195.12.26.12.08 0a.61.61 0 0 0-.184-.092c-.025 0 .022.04.105.092m21.633.003c-.18.116-.115.114.103-.003.094-.05.14-.09.103-.09s-.13.043-.206.092m-30.764.18c.076.05.17.092.206.092s-.01-.04-.103-.092c-.22-.118-.282-.118-.103 0m9.377-.074a2.8 2.8 0 0 0 .582.286c.01-.01-.1-.077-.25-.15-.32-.156-.37-.177-.332-.137m22.11.86l-1.33.736c.04 0 .104-.03.142-.07s.087-.07.11-.07l1.178-.59a.58.58 0 0 1 .18-.072c.07-.016.127-.05.127-.075s.03-.045.067-.045c.066 0 .452-.19.55-.275.028-.023.107-.056.176-.074.114-.03.284-.167.19-.155-.022.002-.648.312-1.39.687m-8.538-.4c-.145.078-.256.15-.247.158.017.017.363-.15.5-.25.16-.107.01-.055-.262.09m-19.033.078a.61.61 0 0 0 .184.092c.025 0-.022-.04-.105-.092-.195-.12-.26-.12-.08 0m6.506 0c.195.12.26.12.08 0a.61.61 0 0 0-.184-.092c-.025 0 .022.04.105.092m-11.467.138c.195.12.26.12.08 0a.61.61 0 0 0-.184-.092c-.025 0 .022.04.105.092m2.257 0c.195.12.26.12.08 0a.61.61 0 0 0-.184-.092c-.025 0 .022.04.105.092m-1.9.184c.076.05.16.09.184.09s-.016-.04-.092-.09a.6.6 0 0 0-.184-.091c-.025 0 .016.04.092.09m11.675-.03c.063.033.125.052.137.042.032-.026-.103-.103-.183-.103-.038 0-.018.027.046.06m10.782.217c-.215.115-.295.204-.097.107s.36-.204.298-.196c-.025.003-.115.043-.2.09M5.105 6.2c.195.12.26.12.08 0a.61.61 0 0 0-.184-.092c-.025 0 .022.04.105.092m2.257 0c.195.12.26.12.08 0a.61.61 0 0 0-.184-.092c-.025 0 .022.04.105.092m2.994 0c.195.12.26.12.08 0a.61.61 0 0 0-.184-.092c-.025 0 .022.04.105.092m-4.938.16c.05.037.1.067.135.067s.006-.03-.043-.067-.1-.067-.135-.067-.006.03.043.067m26.92 1.386l-2.583 1.33c-.043.04-.105.07-.137.07s-.113.028-.18.063l-.485.24c-.2.097-.338.184-.308.194s.092-.015.136-.055.106-.074.136-.074.13-.04.226-.092.195-.092.224-.092.078-.03.1-.07a.21.21 0 0 1 .14-.069c.053-.003.104-.024.144-.06.033-.033.33-.192.66-.354l.614-.33c.008-.02.05-.04.092-.04s.18-.064.307-.138l.3-.162c.078-.03.493-.235.6-.294l.657-.326.613-.327c.013-.022.063-.04.1-.04.058-.005.113-.029.155-.069s.09-.07.114-.07a2.65 2.65 0 0 0 .561-.283c.013-.017.08-.046.147-.063.114-.028.284-.167.19-.155-.022.002-1.167.572-2.544 1.264M8.318 6.638c.062.063.494.29.514.27.01-.01-.114-.083-.272-.166s-.267-.13-.242-.103m3.04.054a.61.61 0 0 0 .184.092c.025 0-.022-.04-.105-.092-.195-.12-.26-.12-.08 0M25.15 6.67c-.03.038-.09.07-.132.072s-.054.012-.017.027.112-.02.18-.072.1-.096.075-.096-.075.03-.104.07m-16.185.32c.05.037.1.067.135.067s.006-.03-.043-.067-.1-.067-.135-.067-.006.03.043.067m3.313.162a.61.61 0 0 0 .184.092c.025 0-.022-.04-.105-.092-.195-.12-.26-.12-.08 0m-4.95.114c0 .027.257.162.31.162.02 0-.03-.04-.114-.092-.154-.094-.194-.108-.194-.07m5.273.034c.138.098.492.273.512.253.01-.01-.1-.078-.247-.152-.322-.163-.386-.187-.265-.1m-2.658.174c.195.12.26.12.08 0a.61.61 0 0 0-.184-.092c-.025 0 .022.04.105.092m13.622 0c-.18.12-.116.12.08 0 .083-.05.13-.092.105-.092s-.108.04-.184.092m-3.866.16c.05.037.1.067.135.067s.006-.03-.043-.067-.1-.067-.135-.067-.006.03.043.067m-11.442.088a2.8 2.8 0 0 0 .582.286c.01-.01-.1-.077-.25-.15-.32-.156-.37-.177-.332-.137m2.278.05c.05.037.1.067.135.067s.006-.03-.043-.067-.1-.067-.135-.067-.006.03.043.067m12.256.084c-.146.078-.258.15-.25.158.016.015.53-.237.576-.282.06-.06-.084-.005-.326.124m-2.731-.059c.062.063.4.237.42.216.008-.008-.094-.072-.227-.14s-.22-.102-.194-.075m-6.23.14c.225.12.286.12.1 0-.083-.05-.176-.092-.206-.092s.022.04.116.092m-4.935.1a2.8 2.8 0 0 0 .582.286c.01-.01-.1-.077-.25-.15-.32-.156-.37-.177-.332-.137m2.334.075c.195.12.26.12.08 0a.61.61 0 0 0-.184-.092c-.025 0 .022.04.105.092m2.98 0a.61.61 0 0 0 .184.092c.025 0-.022-.04-.105-.092-.195-.12-.26-.12-.08 0m6.46 0c.195.12.26.12.08 0a.61.61 0 0 0-.184-.092c-.025 0 .022.04.105.092m1.6.003c-.076.05-.117.088-.092.088s.108-.04.184-.09.117-.1.092-.088-.108.042-.184.09m-10.452.295c.05.037.1.067.135.067s.006-.03-.043-.067-.1-.067-.135-.067-.006.03.043.067m9.568.034c.072.045.25.046.28.001.012-.02-.058-.035-.156-.035s-.153.016-.123.035m-6.255.128a.61.61 0 0 0 .184.092c.025 0-.022-.04-.105-.092-.195-.12-.26-.12-.08 0m12.547.16c-.114.06-.186.11-.16.11.089-.027.173-.064.253-.111.114-.06.186-.11.16-.11a1.16 1.16 0 0 0-.253.111m-12.237-.001c.138.098.492.273.512.253.01-.01-.1-.078-.247-.152-.322-.163-.386-.187-.265-.1m-2.658.174c.195.12.26.12.08 0a.61.61 0 0 0-.184-.092c-.025 0 .022.04.105.092m.59.297c.05.037.1.067.135.067s.006-.03-.043-.067-.1-.067-.135-.067-.006.03.043.067m3.313.162c.23.117.27.117.092 0-.076-.05-.168-.092-.205-.092s.014.04.113.092m14.53-.023c-.03.038-.084.07-.117.07-.05 0-.278.107-.574.27-.232.13-.768.376-.812.375-.028 0-.077.028-.107.065a.39.39 0 0 1-.187.095c-.114.025-.293.16-.212.16.043 0 2.193-1.065 2.193-1.087 0-.05-.133-.01-.184.05m-17.142.207c.083.05.176.092.206.092s-.022-.04-.116-.092c-.225-.12-.286-.12-.1 0m3.02.058c.08.082.155.145.165.137.026-.017-.235-.288-.277-.288-.018 0 .032.067.112.15m8.888-.015c-.137.084-.247.224-.243.3.001.02.032-.02.07-.088a.57.57 0 0 1 .205-.197c.075-.04.137-.08.137-.092 0-.033-.01-.028-.17.068m2.14.24c-.52.26-.52.26.362.722a.45.45 0 0 0 .264.034c.173-.033.463-.21.345-.21-.042 0-.112.034-.154.076-.087.087-.468.113-.52.034-.034-.052-.21-.157-.436-.258-.178-.08-.162-.202.034-.267.09-.03.16-.07.16-.092s.06-.052.135-.068a.4.4 0 0 0 .19-.096c.08-.096.017-.075-.382.125m-10.83.117c.013.08.003.224-.024.32s-.04.18-.03.192c.055.055.12-.387.077-.517l-.048-.14.024.147m-4.582-.014a2.8 2.8 0 0 0 .582.286c.01-.01-.1-.077-.25-.15-.32-.156-.37-.177-.332-.137m2.498.172c.08.047.08.055-.023.17l-.107.122.126-.11c.125-.1.11-.237-.028-.233-.028.001-.014.024.032.05m-1.742.224c.076.05.16.09.184.09s-.016-.04-.092-.09a.6.6 0 0 0-.184-.091c-.025 0 .016.04.092.09m12.275.152c-.004.088.1.212.253.302.23.135.27.12.05-.017-.1-.06-.207-.16-.24-.217s-.06-.09-.06-.068m-8.665.117c-.06.047-.155.1-.21.117s-.123.06-.152.095c-.036.044-.003.038.106-.018.173-.088.44-.276.394-.28-.015-.001-.077.037-.138.084m-1.567.838l-.11.095.138-.08c.182-.106.184-.11.128-.11-.027 0-.1.042-.157.095m11.727-.003a.61.61 0 0 0 .184.092c.025 0-.022-.04-.105-.092-.195-.12-.26-.12-.08 0m-5.92.486c-.075.046-.083.06-.023.038a.65.65 0 0 1 .207-.027c.1.005.1-.004.046-.04-.088-.057-.092-.057-.23.027m-7.07.16c-.076.05-.117.088-.092.088s.108-.04.184-.09.117-.1.092-.088-.108.042-.184.09m14.23-.003a.61.61 0 0 0 .184.092c.025 0-.022-.04-.105-.092-.195-.12-.26-.12-.08 0m-15.004.38c-.146.076-.26.146-.25.156a3.14 3.14 0 0 0 .577-.281c.055-.055-.078-.004-.327.126m15.948.057c0 .03.282.17.303.15.01-.01-.054-.052-.142-.095s-.16-.067-.16-.055m-6.443.087c.05.042.32.167.32.146 0-.026-.255-.164-.305-.164-.018 0-.024.008-.014.018m-10.02.124c-.076.05-.117.088-.092.088s.108-.04.184-.09.117-.1.092-.088-.108.042-.184.09m6.494.135c-.18.12-.116.12.08 0 .083-.05.13-.092.105-.092s-.108.04-.184.092m4.063.005c.06.06.427.23.427.2 0-.01-.108-.072-.24-.136s-.216-.092-.187-.063m-4.388.154c-.05.037-.07.067-.043.067s.086-.03.135-.067.07-.067.043-.067-.086.03-.135.067m-7.1.162c-.18.12-.116.12.08 0 .083-.05.13-.092.105-.092s-.108.04-.184.092m18.74.024c.05.037.1.067.135.067s.006-.03-.043-.067-.1-.067-.135-.067-.006.03.043.067m-19.238.217c-.146.076-.26.146-.25.156a3.14 3.14 0 0 0 .577-.281c.055-.055-.078-.004-.327.126m6.622.08c-.18.12-.116.12.08 0 .083-.05.13-.092.105-.092s-.108.04-.184.092m6.474-.074c.184.113.379.21.58.29.017-.018-.52-.307-.57-.307-.017 0-.02.008-.01.018m-5 .738l-1.305.717c.042.001.108-.03.146-.067s.086-.07.107-.07a21.94 21.94 0 0 0 1.212-.596l.484-.237c.228-.1.42-.216.43-.236.105-.245.22.544.118.81-.015.04-.248.18-.518.31l-.506.277c-.01.02-.04.037-.07.037-.042-.001-1.787.842-2.103 1.016l-8.516 4.235c-.032 0-.112.04-.176.092-.078.06-.094.092-.05.092.038 0 .095-.03.127-.07s.087-.07.123-.07c.052 0 .966-.436 1.258-.6.038-.022 1.178-.59 2.533-1.265l2.536-1.267.645-.325.817-.414c.044-.025.132-.068.196-.095l1.842-.92 1.302-.647c.666-.325.642-.294.622-.87-.018-.505.06-.514-1.257.156m-9.016-.28c-.146.076-.26.146-.25.156.201-.074.395-.168.577-.281.055-.055-.078-.004-.327.126m11.967-.082c.05.037.1.067.135.067s.006-.03-.043-.067-.1-.067-.135-.067-.006.03.043.067m9.438.024a.61.61 0 0 0 .184.092c.025 0-.022-.04-.105-.092-.195-.12-.26-.12-.08 0m-14.783.138c-.18.12-.116.12.08 0 .083-.05.13-.092.105-.092s-.108.04-.184.092m15.037-.024c0 .03.282.17.303.15.01-.01-.054-.052-.142-.095s-.16-.067-.16-.055m-22.175.21c-.076.05-.117.088-.092.088s.108-.04.184-.09.117-.1.092-.088-.108.042-.184.09m6.77 0c-.076.05-.117.088-.092.088s.108-.04.184-.09.117-.1.092-.088-.108.042-.184.09m6.414-.003c.083.05.176.092.206.092s-.022-.04-.116-.092c-.225-.12-.286-.12-.1 0m3.04.138c.195.12.26.12.08 0a.61.61 0 0 0-.184-.092c-.025 0 .022.04.105.092m-17.144.323c-.18.12-.116.12.08 0 .083-.05.13-.092.105-.092s-.108.04-.184.092m6.77.003c-.076.05-.117.088-.092.088s.108-.04.184-.09.117-.1.092-.088-.108.042-.184.09m11.007-.003a.61.61 0 0 0 .184.092c.025 0-.022-.04-.105-.092-.195-.12-.26-.12-.08 0m-18.422.325c-.076.05-.117.09-.092.09s.108-.04.184-.09.117-.09.092-.09-.108.04-.184.09m16.303 0c.076.05.16.09.184.09s-.016-.04-.092-.09a.6.6 0 0 0-.184-.091c-.025 0 .016.04.092.09m-8.81 1.08l-2.105 1.105c.03.01.1-.012.132-.05a.49.49 0 0 1 .205-.097c.07-.017.127-.05.127-.072s.06-.055.135-.07.16-.06.2-.096.085-.063.138-.066a.24.24 0 0 0 .146-.063c.051-.044.111-.077.176-.098a.62.62 0 0 0 .182-.092c.038-.032.126-.07.196-.087s.127-.05.127-.075.026-.045.057-.045c.045 0 .857-.393 1.232-.597l.658-.326c.514-.252.726-.38.6-.36-.02.003-1.01.494-2.196 1.092m11.922-.888c.05.037.1.067.135.067s.006-.03-.043-.067-.1-.067-.135-.067-.006.03.043.067m6.632 0c.05.037.1.067.135.067s.006-.03-.043-.067-.1-.067-.135-.067-.006.03.043.067m.325.16a.61.61 0 0 0 .184.092c.025 0-.022-.04-.105-.092-.195-.12-.26-.12-.08 0m-27.264.138c-.18.12-.116.12.08 0 .083-.05.13-.092.105-.092s-.108.04-.184.092m6.77.003c-.18.116-.115.114.103-.003.094-.05.14-.09.103-.09s-.13.043-.206.092m11.388-.003c.195.12.26.12.08 0a.61.61 0 0 0-.184-.092c-.025 0 .022.04.105.092m2.75 0a.61.61 0 0 0 .184.092c.025 0-.022-.04-.105-.092-.195-.12-.26-.12-.08 0m-4.543.14c.085.052.165.084.177.072.023-.023-.23-.167-.295-.167-.02 0 .032.042.118.095m-16.734.046c-.076.05-.117.088-.092.088s.108-.04.184-.09.117-.1.092-.088-.108.042-.184.09m18.776-.07a3.26 3.26 0 0 0 .576.282c.008-.01-.11-.08-.262-.16-.257-.135-.37-.18-.314-.12m3.248.3c.08.085.156.146.165.135s-.057-.08-.148-.155l-.165-.135.148.155m-22.945.23c-.18.12-.116.12.08 0 .083-.05.13-.092.105-.092s-.108.04-.184.092m6.547.12c-.072.04-.12.08-.11.092s.09-.02.177-.075c.18-.11.126-.125-.068-.02m12.394.018c.195.12.26.12.08 0a.61.61 0 0 0-.184-.092c-.025 0 .022.04.105.092m2.077.002c.085.052.165.084.177.072.023-.023-.23-.167-.295-.167-.02 0 .032.042.118.095m2.575-.002c.195.12.26.12.08 0a.61.61 0 0 0-.184-.092c-.025 0 .022.04.105.092m-24.237.184c-.076.05-.117.09-.092.09s.108-.04.184-.09.117-.09.092-.09-.108.04-.184.09m24.593 0c.076.05.16.09.184.09s-.016-.04-.092-.09a.6.6 0 0 0-.184-.091c-.025 0 .016.04.092.09m7.136.162c.05.037.1.067.135.067s.006-.03-.043-.067-.1-.067-.135-.067-.006.03.043.067M5.064 16.7c-.076.05-.117.088-.092.088s.108-.04.184-.09.117-.1.092-.088-.108.042-.184.09m6.69.053c-.146.078-.258.15-.25.16.02.02.448-.203.512-.265s.025-.05-.263.106m14.565-.06c.063.052.136.094.16.094.05 0-.034-.063-.184-.14-.06-.032-.053-.016.023.046m2.062.004c.195.12.26.12.08 0a.61.61 0 0 0-.184-.092c-.025 0 .022.04.105.092m2.566 0a.61.61 0 0 0 .184.092c.025 0-.022-.04-.105-.092-.195-.12-.26-.12-.08 0m6.816 0a.61.61 0 0 0 .184.092c.025 0-.022-.04-.105-.092-.195-.12-.26-.12-.08 0m-33.47.38c-.146.076-.26.146-.25.156a3.14 3.14 0 0 0 .577-.281c.055-.055-.078-.004-.327.126m22.605-.082c.05.037.1.067.135.067s.006-.03-.043-.067-.1-.067-.135-.067-.006.03.043.067m11.5.001a.61.61 0 0 0 .184.092c.025 0-.022-.04-.105-.092-.195-.12-.26-.12-.08 0m-27.452.14c-.076.05-.117.09-.092.09s.108-.04.184-.09.117-.09.092-.09-.108.04-.184.09m2.026.364l-.982.555c.042.001.108-.03.146-.067s.1-.07.135-.07.115-.038.176-.085a.74.74 0 0 1 .236-.116c.069-.016.127-.05.127-.076s.03-.045.067-.045c.066 0 .452-.19.55-.275a.56.56 0 0 1 .176-.074c.113-.028.285-.167.19-.155-.022.003-.392.185-.823.405m18.926-.34c.05.037.1.067.135.067s.006-.03-.043-.067-.1-.067-.135-.067-.006.03.043.067m-28 .098c-.017.017-.03.046-.03.064a.84.84 0 0 0 .35.213c.01-.01-.055-.057-.145-.105s-.15-.112-.14-.145c.025-.064.01-.075-.036-.025m6.545.12c-.145.078-.256.15-.247.158.017.017.363-.15.5-.25.16-.107.01-.055-.262.09m17.142-.065c.063.05.146.095.184.096.06 0 .024-.024-.242-.16-.032-.017-.006.013.057.065m1.91.005a.61.61 0 0 0 .184.092c.025 0-.022-.04-.105-.092-.195-.12-.26-.12-.08 0m2.717 0a.61.61 0 0 0 .184.092c.025 0-.022-.04-.105-.092-.195-.12-.26-.12-.08 0m6.718-.055c.017.03-.043.1-.142.168s-.152.117-.126.117c.1 0 .36-.26.298-.3-.04-.025-.05-.02-.03.012m-34.3.492c.05.037.1.067.135.067s.006-.03-.043-.067-.1-.067-.135-.067-.006.03.043.067m5.017.027c-.076.05-.117.088-.092.088s.108-.04.184-.09.117-.1.092-.088-.108.042-.184.09m23.476-.003c.225.12.286.12.1 0-.083-.05-.176-.092-.206-.092s.022.04.116.092m-2.663.024c.05.037.1.067.135.067s.006-.03-.043-.067-.1-.067-.135-.067-.006.03.043.067m-25.465.124c.138.098.492.273.512.253.01-.01-.1-.078-.247-.152-.322-.163-.386-.187-.265-.1m4.133.114c-.133.066-.234.128-.225.137.02.02.5-.212.5-.242s.003-.03-.265.104m19.93.01a1.09 1.09 0 0 1 .249.182c.048.053.106.097.128.097s-.025-.06-.11-.13c-.158-.137-.326-.238-.4-.235-.02.001.035.04.124.087m-18.49.643l-1.442.786c.042.001.108-.03.146-.067a.26.26 0 0 1 .13-.072c.034-.002.164-.064.29-.138l.3-.162.599-.293.331-.158c.144-.066.275-.14.29-.166s.067-.046.114-.046c.057-.004.111-.028.153-.067a.47.47 0 0 1 .186-.096c.1-.027.276-.165.186-.154l-1.284.635m-7.5-.333c-.12.12-.02.96.124 1.036.096.05.096.048-.005-.062-.14-.153-.16-.938-.023-.973.064-.017.066-.022.008-.026-.04-.003-.087.01-.104.025m5.29.064c-.076.05-.117.088-.092.088s.108-.04.184-.09.117-.1.092-.088-.108.042-.184.09m21.23-.04c.138.098.492.273.512.253.01-.01-.1-.078-.247-.152-.322-.163-.386-.187-.265-.1m9.395.32l-.875.446-1.128.558-.325.165c-.415.207-.413.205-.4.698.003.565.087.582.756.15.1-.065.493-.272.87-.46s.662-.35.63-.36-.093.014-.138.055-.105.074-.133.074a2.53 2.53 0 0 0-.535.27.61.61 0 0 1-.175.07c-.067.017-.127.05-.127.075s-.02.045-.043.045c-.062 0-.236.08-.394.183-.603.4-.65.384-.657-.077-.006-.502-.03-.473.67-.817l.7-.35.368-.188c.165-.082.306-.165.315-.186s.04-.037.07-.037c.077 0 1.2-.56 1.218-.607.05-.13.1.068.1.405 0 .4-.047.57-.158.57a2.42 2.42 0 0 0-.578.28c-.013.016-.075.045-.138.065-.13.04-.32.16-.254.16.13 0 1.128-.54 1.175-.635.092-.2.048-.86-.06-.896-.03-.01-.363.144-.743.34m-32.732-.145c.195.12.26.12.08 0a.61.61 0 0 0-.184-.092c-.025 0 .022.04.105.092m28.568.063c.05.042.32.167.32.146s-.255-.164-.305-.164c-.018 0-.024.008-.014.017m1.458.055c-.178.097-.158.13.023.038.174-.088.204-.11.146-.108-.023.001-.1.032-.17.07m-29.78-.01a2.8 2.8 0 0 0 .582.286c.01-.01-.1-.077-.25-.15-.32-.156-.37-.177-.332-.137m23.782.074a.61.61 0 0 0 .184.092c.025 0-.022-.04-.105-.092-.195-.12-.26-.12-.08 0m2.67.286c.138.098.492.273.512.253.01-.01-.1-.078-.247-.152-.322-.163-.386-.187-.265-.1m-28.1.178c.067.052.15.085.18.072.036-.015.03-.024-.018-.027a.22.22 0 0 1-.132-.072c-.032-.037-.078-.07-.104-.07s.008.043.075.096m26.35-.004a.61.61 0 0 0 .184.092c.025 0-.022-.04-.105-.092-.195-.12-.26-.12-.08 0m-27.758.325c.195.12.26.12.08 0a.61.61 0 0 0-.184-.092c-.025 0 .022.04.105.092m4.99.232c-.29.147-.542.294-.564.328-.072.1-.026.926.052.95.053.015.055.01.01-.023s-.056-.16-.046-.472l.013-.43.528-.268c.49-.25.683-.367.575-.354-.024.003-.28.126-.57.273m23.733-.07c.05.037.1.067.135.067s.006-.03-.043-.067-.1-.067-.135-.067-.006.03.043.067m.28.124c.138.098.492.273.512.253.01-.01-.1-.078-.247-.152-.322-.163-.386-.187-.265-.1m2.12.036a.61.61 0 0 0 .184.092c.025 0-.022-.04-.105-.092-.195-.12-.26-.12-.08 0m-30.166.138c.23.117.27.117.092 0-.076-.05-.168-.092-.205-.092s.014.04.113.092m1.935-.048c.222.09.26.196.245.662-.008.24.001.428.02.416.213-.133-.042-1.13-.287-1.118-.046.002-.038.016.025.04m28.565.103c.14.15.16.936.023.976-.062.018-.06.022.012.015.185-.02.156-.925-.032-1.04l-.105-.063.104.112m-30.242.055c.057.052.546.292.525.257-.014-.022-.13-.094-.258-.158-.2-.105-.318-.145-.267-.1m28.436.043c.15.1.48.262.54.262.03 0-.1-.075-.266-.16-.337-.17-.423-.2-.275-.1m-27.48.446a1.26 1.26 0 0 1 .163.078c.028.018.01-.003-.037-.048s-.122-.08-.163-.077c-.047.002-.034.02.037.048m3 .008c-.02.032-.156.117-.302.2-.226.112-.365.212-.296.212.234-.107.458-.232.672-.375.08-.063.1-.086.037-.086-.04 0-.09.026-.1.058m25.606.103l.3.16c.05-.002-.467-.32-.52-.32-.025 0 .074.072.22.16m-28.222.115a.61.61 0 0 0 .184.092c.025 0-.022-.04-.105-.092-.195-.12-.26-.12-.08 0m28.65.114c.05.037.1.067.135.067s.006-.03-.043-.067-.1-.067-.135-.067-.006.03.043.067M2.677 31.044a.58.58 0 0 0-.207.055.63.63 0 0 1-.177.067c-.28.067-.998.675-.998.84 0 .034-.018.062-.04.062-.205 0-.376 3.158-.18 3.353.096.096 40.868.08 40.905-.017.164-.428-.005-3.144-.203-3.267-.025-.015-.045-.07-.045-.12 0-.194-.576-.69-1.022-.88l-.245-.105-18.813-.004c-10.347-.003-18.886.004-18.974.015m37.884.13c.462.134 1.023.55 1.105.82a.56.56 0 0 0 .088.166c.184.217.332 3.095.165 3.198-.068.042-40.777.03-40.818-.013-.067-.067-.018-2.673.055-2.91.177-.575.69-1.078 1.29-1.262.335-.103 37.76-.104 38.114 0M3.385 32.641c-.335.146-.506.57-.357.883.268.566.935.614 1.258.092.354-.572-.27-1.25-.9-.975m2.346.023c-.356.217-.47.606-.28.944.367.65 1.384.353 1.313-.382-.05-.525-.6-.825-1.034-.562m2.427-.038c-.3.12-.502.505-.418.787.188.63.93.764 1.293.234.384-.56-.23-1.278-.875-1.02m-3.988.24c.236.288.232.527-.015.813-.375.435-1.11.185-1.11-.377 0-.607.747-.897 1.125-.436m2.35-.04c.27.277.27.575.006.88-.45.52-1.36-.064-1.055-.677.21-.42.74-.522 1.048-.204m2.33-.048c.21.206.23.25.23.486s-.02.28-.23.486c-.415.41-1.15-.017-1.04-.602.08-.432.74-.666 1.04-.37m-7.692 3.52l-.115.032-.012 12.548c-.013 13.606-.03 12.567.212 13.077a2.73 2.73 0 0 0 .79.792c.574.27-1.35.245 19.48.245l19.16-.094a2.16 2.16 0 0 0 1.265-1.265c.118-.32.152-25.175.034-25.293-.065-.065-40.58-.107-40.813-.042m40.778.124c.114.114.086 24.803-.028 25.124-.248.696-.715 1.142-1.396 1.335-.416.117-37.723.095-38.064-.022-.655-.226-1.063-.616-1.273-1.215l-.108-.31V48.873l.057-12.488c.176-.07 40.74-.03 40.813.042m-38.37 9.557c-.045.045-.057.648-.057 2.697v2.638l.104.026c.057.014.28.02.495.013l.39-.014.046-1.98.69-.027c.742-.03.92-.074 1.3-.33.29-.196.657-.695.657-.893 0-.047-.057.03-.127.168-.2.4-.613.828-.8.83-.034 0-.125.034-.2.076-.104.057-.308.08-.83.1-.44.014-.703.04-.725.074s-.034.482-.034 1.007l-.001.956h-.876l.024-5.32h1.205c1.08 0 1.214.01 1.293.08.05.044.115.08.147.08s.11.04.175.092.14.092.168.093c.072.002.354.382.474.637.055.117.1.178.104.135.013-.266-.392-.737-.848-.988l-.325-.177-1.197-.015c-.924-.01-1.2-.002-1.255.044m22.705.502c-.097.04-.104.067-.104.5 0 .595-.005.604-.278.604-.306 0-.367.072-.367.437 0 .42.013.438.3.438.342 0 .34-.008.36 1.062.02 1.147.055 1.305.352 1.6.408.406.907.48 1.558.235.07-.026.1-.074.1-.144l-.006-.105-.02.102c-.015.076-.062.11-.19.13-.093.016-.236.05-.316.08-.157.053-.89-.075-.89-.16 0-.022-.047-.06-.104-.087-.325-.147-.45-.653-.45-1.795 0-.97.002-.965-.335-.965-.21 0-.31-.117-.31-.364 0-.287.062-.373.267-.373.333 0 .377-.074.377-.642s-.015-.554.468-.555c.417-.001.407-.015.407.55 0 .602.006.6.524.644l.374.025.014.25c.025.443.01.463-.357.463-.175 0-.372.02-.437.045l-.118.045v.802c0 1.104.117 1.35.632 1.308.146-.01.25.001.26.03s.022.014.024-.03c.003-.068-.04-.08-.284-.082-.515-.002-.587-.15-.587-1.228 0-.84.002-.843.535-.843.382 0 .386-.005.386-.42 0-.424-.03-.454-.453-.454-.464 0-.468-.006-.468-.583 0-.42-.01-.478-.09-.52a1.76 1.76 0 0 0-.774 0m-21.74.425c-.062.062-.08 1.397-.02 1.435.02.012.034-.303.034-.7v-.72l1.105-.05-.532-.01c-.363-.006-.55.008-.587.046m1.227.024c.59.112.65 1.05.088 1.34-.108.055-.16.1-.115.1.253.002.588-.44.587-.777-.001-.29-.327-.702-.55-.7-.114.006-.114.008-.012.027m1.452.68c0 .228.008.327.018.22a2.89 2.89 0 0 0 0-.414c-.01-.12-.017-.034-.017.194m6.8-.07c-.112.024-.017.036.314.04.567.008.845.114 1.196.46.747.735.765 2.168.036 2.863-.067.064-.134.13-.199.196-.043.044-.1.08-.12.08s-.076.025-.116.06c-.326.273-1.248.22-1.6-.092-.094-.084-.2-.152-.23-.152s-.066-.026-.077-.057-.044-.008-.077.063c-.042.1-.044.145-.006.216.1.186.066 1.655-.038 1.71-.123.066-.662.06-.73-.008s-.08-5.084-.016-5.186c.027-.042.137-.056.38-.046l.34.014.015.138a.4.4 0 0 0 .052.177c.042.044.324-.088.324-.152 0-.023.082-.088.184-.145s.175-.11.165-.12-.106.04-.213.112c-.392.26-.386.26-.42.1-.04-.193-.1-.22-.48-.225-.474-.001-.435-.244-.435 2.716 0 2.967-.04 2.717.45 2.717.552 0 .524.057.514-1.026-.01-1.02.003-1.056.238-.825 1.003.98 2.71-.15 2.657-1.763-.04-1.268-.985-2.104-2.1-1.867m4.605 0c-.112.024-.017.036.314.04.567.008.845.114 1.196.46.747.735.765 2.168.036 2.863-.067.064-.134.13-.199.196-.043.044-.1.08-.12.08s-.076.025-.116.06c-.326.273-1.248.22-1.6-.092-.094-.084-.2-.152-.23-.152s-.066-.026-.077-.057-.044-.008-.077.063c-.042.1-.044.145-.006.216.1.186.066 1.655-.038 1.71-.123.066-.662.06-.73-.008s-.08-5.084-.016-5.186c.027-.042.137-.056.38-.046l.34.014.015.138a.4.4 0 0 0 .052.177c.042.044.324-.088.324-.152 0-.023.082-.088.184-.145s.175-.11.165-.12-.106.04-.213.112c-.392.26-.386.26-.42.1-.04-.193-.1-.22-.48-.225-.474-.001-.435-.244-.435 2.716 0 2.967-.04 2.717.45 2.717.552 0 .524.057.514-1.026-.01-1.02.003-1.056.238-.825 1.003.98 2.71-.15 2.657-1.763-.04-1.268-.985-2.104-2.1-1.867m4.18.002c-.45.075-1.275.697-1.275.96-.004.055-.028.107-.069.144-.038.03-.068.1-.067.155.001.062.045.006.12-.155.117-.246.687-.875.794-.875.025 0 .127-.04.222-.092.14-.076.267-.093.702-.1.407-.004.487-.014.346-.043-.224-.046-.48-.045-.775.005m7.335-.002c-.102.022.04.034.39.034.418 0 .502-.01.345-.036-.25-.044-.52-.044-.737.002m4.283 0c-.11.023.01.036.36.04.558.006.662.035 1.077.3.12.076.23.174.243.218s.056.092.093.106.067.055.067.09.03.09.065.12.08.13.095.224c.032.186.157.445.16.33.02-.856-1.165-1.638-2.163-1.428m4.697-.002c-.083.028-.006.04.276.045.504.007.548.032.447.265a1.79 1.79 0 0 0-.104.34c-.028.166-.176.312-.23.227-.034-.055-.407-.06-.518-.007l-.214.104c-.417.203-.488.467-.477 1.792l.008 1.036.025-1.128c.025-1.225.046-1.313.335-1.58.15-.14.6-.247.768-.184.2.076.312.005.35-.223a1.36 1.36 0 0 1 .097-.323c.087-.17.08-.255-.026-.312a1.61 1.61 0 0 0-.739-.05m-31.248.125c-.068.068-.075.216-.06 1.416l.016 1.34.147.3c.427.87 1.47 1.055 2.174.382.15-.143.217-.182.243-.14s.037.043.037.003c.002-.127-.107-.105-.245.05-.08.09-.166.166-.19.166s-.074.025-.114.06c-.525.44-1.546.15-1.863-.532l-.122-.263.024-2.743.338-.013c.486-.02.456-.098.475 1.274.017 1.312.037 1.396.366 1.59.39.23 1.183-.1 1.19-.502.001-.065-.023-.045-.084.07-.292.55-1.008.624-1.31.137-.095-.153-.1-.222-.116-1.38-.01-.86-.03-1.23-.07-1.254-.112-.07-.757-.04-.837.04m2.557-.03c-.072.045-.075.09-.103 1.645-.008.45.002.63.034.576.025-.042.056-.544.07-1.114l.023-1.036.298-.014a1.98 1.98 0 0 1 .403.013l.105.026v3.6h-.777l-.04-.3.012.325.345.014a2.48 2.48 0 0 0 .45-.012l.106-.026-.013-1.82c-.01-1.558-.023-1.826-.082-1.863a2.04 2.04 0 0 0-.83 0m13.402-.03c0 .008.135.085.3.17a1.35 1.35 0 0 1 .489.4c.206.267.266.316.142.115-.184-.298-.33-.426-.7-.617-.15-.077-.232-.1-.232-.067m5.826.092c-.252.13-.72.608-.84.86-.09.19-.092.198-.01.098.05-.06.1-.137.1-.17 0-.1.622-.695.763-.73.079-.021.153-.054.222-.098.14-.098-.006-.072-.225.04m1.635-.001c.348.172.48.27.6.433.062.086.14.186.17.22s.058.1.06.124a1.15 1.15 0 0 0 .095.245c.098.193.09.112-.014-.16-.096-.252-.287-.525-.457-.65-.24-.178-.5-.318-.584-.316-.042.001.015.048.13.104m2.638-.015c-1 .544-1.38 1.7-.88 2.748.584 1.22 2.354 1.434 3.26.393.25-.29.24-.33-.136-.53-.386-.204-.42-.207-.562-.044-.183.21-.3.297-.46.335l-.15.036.144.005c.113.004.197-.045.4-.225.29-.272.254-.266.548-.092.13.076.253.138.276.138.154 0-.007.35-.234.507-.055.038-.122.1-.15.116-.255.233-1.103.452-1.378.355-.12-.037-.242-.064-.366-.082s-.23-.05-.245-.072-.095-.07-.18-.106c-.19-.08-.613-.504-.65-.653-.015-.06-.043-.1-.063-.1s-.08-.185-.133-.41c-.24-1.005.19-1.877 1.146-2.32.103-.048.128-.073.07-.07a.74.74 0 0 0-.24.085m3.492-.028c-.037.045-.05.576-.04 1.877l.012 1.814.83.005-.807-.032.024-3.612.357-.014c.352-.013.357-.012.357.1 0 .354.104.408.34.178.106-.102.221-.194.344-.275.094-.056.14-.103.107-.104-.067-.002-.275.142-.48.332-.17.156-.22.16-.22.014 0-.3-.06-.348-.43-.348-.232 0-.357.02-.393.063m-14.316.66a1.02 1.02 0 0 0 .253 0c.07-.01.013-.02-.127-.02s-.196.01-.127.02m7.07 0c-.294.045-.734.64-.507.686.032.006.037.001.01-.012-.25-.125.31-.605.77-.658.275-.032.286-.036.08-.035-.127.001-.287.01-.356.02m4.49 0a1.02 1.02 0 0 0 .253 0c.07-.01.013-.02-.127-.02s-.196.01-.127.02m-20.915.117c-.227.116-.488.407-.536.6-.017.07-.05.138-.072.152-.064.04-.045.536.025.663.057.102.06.084.038-.2-.1-1.277 1.286-1.767 1.87-.66.594 1.125-.962 2.186-1.704 1.16-.073-.1-.133-.158-.133-.127 0 .105.237.367.438.485.5.294 1.075.1 1.437-.48.13-.206.153-.915.036-1.032-.038-.038-.07-.093-.07-.122a1.13 1.13 0 0 0-.445-.414c-.037 0-.1-.03-.137-.07-.107-.107-.507-.087-.748.035m4.605 0c-.227.116-.488.407-.536.6-.017.07-.05.138-.072.152-.064.04-.045.536.025.663.057.102.06.084.038-.2-.1-1.277 1.286-1.767 1.87-.66.594 1.125-.962 2.186-1.704 1.16-.073-.1-.133-.158-.133-.127 0 .105.237.367.438.485.5.294 1.075.1 1.437-.48.13-.206.153-.915.036-1.032-.038-.038-.07-.093-.07-.122a1.13 1.13 0 0 0-.445-.414c-.037 0-.1-.03-.137-.07-.107-.107-.507-.087-.748.035m4.287.004c-.17.126-.32.305-.333.4-.018.12 0 .182.053.182.037 0 .038-.017.002-.06-.096-.115.245-.5.525-.59.09-.03.09-.03-.002-.034-.052-.002-.16.044-.24.103m.935-.07c.16.052.338.193.435.345.058.09.094.117.094.07.001-.107-.403-.455-.522-.45-.095.005-.095.006-.007.034m7.277-.005c.253.063.537.354.516.528-.01.068.002.114.022.1.175-.108-.26-.668-.51-.657-.096.004-.102.01-.03.028m3.228.18c-.197.2-.27.388-.174.447.02.013.03-.035.02-.106-.02-.14.287-.452.51-.517.094-.027.093-.03-.02-.034-.087-.003-.18.056-.334.2m1.16-.117c.273.135.513.494.376.562-.026.013-.02.018.01.012.242-.048-.212-.675-.49-.675-.066 0-.034.03.1.098m-30.375-.018a5.15 5.15 0 0 0 .53 0c.146-.01.026-.017-.265-.017s-.4.008-.265.017m19.978.156a.26.26 0 0 0 .067.178c.086.07.086.05.002-.144-.064-.148-.067-.15-.07-.034m3.78.558c-.06.328.008 1.217.076 1.012.01-.03-.003-.196-.03-.37-.034-.217-.034-.366-.001-.486a1.18 1.18 0 0 0 .033-.343c-.012-.14-.025-.11-.078.186m-3.634.092l-.01.403h-1.312c-1.468 0-1.498.006-1.433.28l.037.158.05-.322 2.647-.024.026-.103c.014-.057.02-.26.01-.448l-.016-.345-.01.403m-3.64-.285c-.595 2.106 2.154 3.52 3.484 1.793.174-.225.18-.212-.23-.433-.375-.2-.41-.202-.55-.026s-.294.28-.476.325l-.14.033.144.005c.113.004.197-.045.4-.225.292-.274.222-.267.628-.06l.333.17-.122.165a1.98 1.98 0 0 1-.241.267l-.184.158c-.243.208-1.1.415-1.352.326-.082-.028-.247-.066-.366-.083s-.24-.06-.27-.095-.07-.064-.09-.064c-.3 0-.854-.762-.904-1.243-.014-.14-.043-.287-.064-.325s-.017-.15.01-.244a.98.98 0 0 0 .028-.317c-.01-.08-.022-.136-.026-.12m10.953.342l-.022.325-1.312.023c-1.364.024-1.428.032-1.428.197v.1l.072-.1c.07-.1.08-.1 1.353-.1 1.48 0 1.396.025 1.374-.445l-.015-.315-.022.325m4.283.07l-.02.253-1.332.013c-1.578.014-1.597.02-1.363.505.16.328.432.5.81.538l.32.023-.264-.042c-.45-.075-.725-.267-.842-.6s-.142-.325 1.34-.325c1.488 0 1.42.02 1.4-.405l-.016-.217-.02.253m-6.998.67c0 .223.446.625.68.613.122-.006.122-.007.01-.025a1.06 1.06 0 0 1-.595-.482c-.065-.132-.097-.166-.097-.102m-7.276.115c-.002.148.46.507.642.5.096-.005.1-.01.024-.028-.117-.03-.483-.242-.485-.282-.002-.073-.18-.258-.182-.19m8.927.23c-.194.198-.24.22-.53.266l-.316.05.3-.023c.325-.025.58-.154.718-.363.073-.112.25-.16.25-.07 0 .025.055.06.123.076.23.057.42.218.38.325s-.543.57-.625.57a.16.16 0 0 0-.105.06c-.085.102-.95.24-1.126.18a2.44 2.44 0 0 0-.34-.08c-.106-.016-.217-.06-.25-.096s-.09-.065-.13-.065-.112-.04-.155-.092-.105-.093-.137-.095c-.075-.003-.362-.38-.475-.617-.046-.098-.092-.155-.102-.127-.024.07.287.546.47.72.816.77 2.265.657 2.937-.227.195-.257.205-.234-.204-.454-.384-.206-.424-.202-.687.066m-8.064.307a.54.54 0 0 0 .184-.001c.044-.011-.003-.02-.104-.02s-.137.01-.08.02m4.852.154a.37.37 0 0 0 .062.207c.054.07.068.074.07.018.001-.04-.017-.09-.04-.115s-.05-.085-.064-.136c-.017-.074-.023-.07-.025.026" fill="#6c6c6c"/><path d="M2.446 31.175c-.6.185-1.114.687-1.29 1.262-.072.236-.122 2.842-.055 2.91.042.042 40.75.054 40.818.012.167-.103.02-2.98-.165-3.198a.56.56 0 0 1-.088-.166c-.082-.27-.643-.686-1.105-.82-.355-.103-37.78-.102-38.114 0m38.382.17c.145.084.285.176.42.276.19.145.23.2.476.634l.117.207.036 2.832H1.156l.001-1.163c.001-1.156.046-1.745.144-1.862.096-.135.178-.279.247-.429a.68.68 0 0 1 .189-.184c.088-.063.186-.136.216-.16.112-.093.475-.253.607-.27.076-.01 8.666-.015 19.09-.012l18.95.005.226.127m-37.37 1.176c-.478.232-.742.826-.482 1.086.038.038.07.087.07.108 0 .114.455.382.65.382.293 0 .693-.354.75-.666.11-.594-.493-1.15-.988-.9m2.453-.05c-.057.01-.104.04-.104.063s-.03.042-.067.042c-.06 0-.218.14-.392.35-.406.492.418 1.382 1.002 1.082.84-.432.473-1.717-.44-1.538m2.41.001c-.51.133-.867.843-.59 1.168.463.542.882.594 1.286.158.48-.52-.034-1.5-.7-1.327m-4.312.186a.69.69 0 0 1 .274.961c-.323.522-.99.473-1.258-.092s.405-1.16.984-.87m2.367-.017c.36.15.508.662.288.995-.307.464-.945.45-1.214-.025-.33-.585.3-1.236.926-.97m2.39.01c.465.222.5.943.06 1.218-.72.45-1.497-.55-.87-1.117.198-.18.55-.224.81-.1m-7.645 3.734c-.046.018-.057 2.56-.057 12.488v12.465l.108.31c.2.6.618.99 1.273 1.215.34.117 37.648.14 38.064.022.68-.192 1.148-.638 1.396-1.335.115-.32.142-25 .028-25.124-.07-.07-40.637-.114-40.813-.042m40.767.104c.064.103.023 24.707-.04 24.965a1.79 1.79 0 0 1-1.361 1.361c-.376.094-37.51.094-37.925.001a1.8 1.8 0 0 1-1.387-1.408c-.068-.32-.1-24.863-.033-24.93.048-.048 40.718-.037 40.748.01M3.483 45.938c-.094.135-.1 5.32-.017 5.415.047.047 1.025.087 1.06.044.005-.006.02-.457.034-1.002l.025-1 .723-.027c.56-.022.75-.045.84-.104.064-.042.136-.076.16-.076.175 0 .642-.452.857-.83.13-.227.137-1.32.01-1.46-.044-.05-.08-.1-.08-.136 0-.044-.063-.13-.265-.36-.393-.45-.884-.576-2.243-.576-1.015 0-1.034.002-1.105.1m2.853.2c.404.222.497.307.706.652l.167.276.001.552c.001.604-.02.666-.333 1.068-.365.467-.75.62-1.646.655l-.69.027-.046 1.98-.39.014c-.165.009-.331.005-.495-.013l-.104-.026v-2.638c0-2.048.013-2.65.057-2.697s.33-.055 1.255-.044l1.197.015.325.177m19.803.364c-.022.18-.033.36-.033.541l-.013.484-.252.014c-.353.02-.37.044-.37.518 0 .464.003.47.368.503l.253.023.027 1.013c.02.694.047 1.07.092 1.194.07.197.465.625.575.625a.45.45 0 0 1 .182.074c.14.09.89.067 1.092-.034s.206-.23.008-.792l-.078-.222-.22.03c-.503.07-.567-.08-.542-1.244l.014-.645.366-.014c.478-.017.486-.026.486-.516s-.008-.498-.486-.516l-.366-.014-.023-.53c-.022-.524-.024-.53-.138-.542-.1-.01-.104-.006-.034.037s.08.122.08.522c0 .577.005.582.468.582.424 0 .453.03.453.454 0 .417-.004.42-.386.42-.533 0-.535.003-.535.843.001 1.074.072 1.226.582 1.228h.282l.032.172a.73.73 0 0 0 .07.22c.107.13.103.388-.007.43-.652.25-1.153.174-1.563-.232-.297-.295-.332-.453-.352-1.6-.02-1.07-.016-1.062-.36-1.062-.285 0-.3-.02-.3-.438 0-.365.06-.437.367-.437.273 0 .278-.01.278-.604 0-.432.006-.46.104-.5l.104-.04-.105-.003c-.057-.002-.114.023-.126.055m-21.6.462c-.012.033-.018.36-.01.725l.012.666.545.013c.78.018 1.182-.24 1.182-.76 0-.242-.314-.658-.495-.656-.05.001-.014.04.09.1.424.246.404.907-.034 1.163-.183.107-.245.117-.734.117h-.534l.025-1.36 1.105-.05-.566-.01c-.425-.007-.57.005-.588.05m9.363.542a.99.99 0 0 0-.497.284c-.084.076-.09.074-.156-.052-.087-.17-.146-.19-.562-.19-.582 0-.523-.312-.523 2.758 0 3.12-.064 2.815.59 2.815.54 0 .516.046.516-1.054 0-.963.005-.98.227-.785.085.074.187.135.23.136a.35.35 0 0 1 .164.069c.06.046.206.067.463.067s.402-.02.463-.067a.38.38 0 0 1 .19-.069c.063-.004.122-.029.169-.07.038-.038.087-.07.11-.07.105 0 .53-.468.687-.76l.174-.325.001-.72c.001-.625-.01-.733-.08-.8-.044-.05-.08-.12-.08-.16s-.03-.097-.07-.13-.07-.084-.07-.117c0-.073-.546-.574-.626-.574-.03 0-.064-.02-.072-.045-.057-.17-.87-.258-1.25-.136m4.605 0a.99.99 0 0 0-.497.284c-.084.076-.09.074-.156-.052-.087-.17-.146-.19-.562-.19-.582 0-.523-.312-.523 2.758 0 3.12-.064 2.815.59 2.815.54 0 .516.046.516-1.054 0-.963.005-.98.227-.785.085.074.187.135.23.136a.35.35 0 0 1 .164.069c.06.046.206.067.463.067s.402-.02.463-.067c.05-.037.134-.068.2-.07s.122-.029.169-.07c.038-.038.087-.07.11-.07.105 0 .53-.468.687-.76l.174-.325.001-.72c.001-.625-.01-.733-.08-.8-.044-.05-.08-.12-.08-.16s-.03-.097-.07-.13-.07-.084-.07-.117c0-.073-.546-.574-.626-.574-.03 0-.064-.02-.072-.045-.057-.17-.87-.258-1.25-.136m4.22-.008c-.155.04-.3.098-.345.126s-.112.066-.17.084c-.478.147-1.022 1.123-1.022 1.836 0 .64.53 1.573.972 1.714a.49.49 0 0 1 .169.097c.034.035.11.063.166.063s.127.025.158.056c.093.093.92.106 1.132.018.076-.034.155-.059.237-.074.033 0 .182-.08.33-.18.233-.155.362-.28.615-.592.09-.113.016-.204-.317-.382-.427-.23-.462-.227-.747.05l-.236.23h-.386c-.51 0-.943-.29-.943-.63v-.106h1.28c1.564 0 1.463.04 1.45-.57-.014-.646-.524-1.548-.875-1.548-.036 0-.097-.03-.135-.07s-.114-.07-.17-.07a1.09 1.09 0 0 1-.284-.067c-.233-.084-.52-.078-.88.017m7.397-.016c-.09.033-.197.062-.24.063-.253.008-.937.575-1.114.924-.32.632-.35 1.443-.066 1.935.031.056.059.113.084.171.297.687 1.628 1.206 2.334.91.09-.038.193-.07.226-.07.257 0 1.094-.84.96-.963-.272-.253-.847-.43-.95-.29-.257.348-1.04.545-1.235.3-.03-.038-.084-.07-.117-.07-.095 0-.344-.347-.344-.48v-.12h1.286c1.558 0 1.45.044 1.42-.6-.032-.67-.38-1.294-.84-1.5-.077-.035-.17-.08-.208-.103-.272-.157-.925-.22-1.197-.117m4.125.025c-.175.047-.33.1-.345.12s-.084.062-.155.093a2.11 2.11 0 0 0-.662.632c-.035.076-.082.17-.106.207-.204.326-.308 1.337-.156 1.524.03.035.067.136.086.224.077.363.84 1.107 1.133 1.107a.56.56 0 0 1 .208.07c.178.092.96.093 1.122 0 .063-.036.15-.066.194-.067.24-.005 1.054-.772.99-.934-.032-.082-.656-.404-.782-.404-.06 0-.152.06-.22.14-.25.307-1.017.468-1.197.25-.03-.038-.083-.07-.115-.07-.09 0-.304-.308-.314-.45l-.008-.126 1.286-.013c1.305-.013 1.4-.026 1.407-.19-.001-.066-.008-.065-.048.006s-.157.08-1.352.08c-1.48 0-1.455-.006-1.34.325.234.663 1.185.805 1.688.25.18-.2.197-.2.592.01.377.2.387.24.136.53-1.347 1.55-3.926.208-3.427-1.782.51-2.04 3.37-2.06 3.72-.023.012.075.022.043.026-.077.003-.106-.014-.205-.038-.22s-.067-.1-.094-.2-.07-.182-.093-.182-.044-.023-.044-.05c0-.234-.584-.65-1.096-.782-.412-.105-.575-.104-.996.01m4.855-.024a.52.52 0 0 1-.192.064c-.042 0-.167.07-.276.152-.274.21-.36.238-.36.12 0-.23-.07-.272-.465-.272-.604 0-.548-.2-.548 1.954 0 1.652.008 1.862.073 1.887.104.04.907.033.972-.008.04-.025.06-.36.07-1.175.01-.69.032-1.154.06-1.173s.077-.093.115-.166c.134-.26.285-.327.73-.327.47 0 .494-.01.53-.246.019-.108.052-.213.098-.312.14-.267.09-.38-.208-.492-.246-.092-.438-.094-.597-.005m-24.413.067c1.516.246 1.978 2.568.71 3.565-.6.478-1.488.507-1.942.062-.236-.23-.247-.193-.238.825.01 1.083.037 1.026-.514 1.026-.49 0-.45.25-.45-2.717 0-2.96-.04-2.718.435-2.716.378.001.438.03.48.225.033.16.025.16.42-.1.298-.2.614-.246 1.103-.167m4.605 0c1.516.246 1.978 2.568.71 3.565-.6.478-1.488.507-1.942.062-.236-.23-.247-.193-.238.825.01 1.083.037 1.026-.514 1.026-.49 0-.45.25-.45-2.717 0-2.96-.04-2.718.435-2.716.378.001.438.03.48.225.033.16.025.16.42-.1.298-.2.614-.246 1.103-.167m4.318.002c.944.164 1.605 1.144 1.38 2.045l-.028.114-2.647.024-.014.148c-.07.715 1.25 1.006 1.735.383.137-.177.174-.175.55.026.41.22.404.207.23.433-.84 1.1-2.573.997-3.276-.174-.177-.296-.335-.967-.285-1.22.08-.406.14-.617.194-.683a.28.28 0 0 0 .06-.15c0-.12.595-.692.84-.81.366-.175.788-.22 1.263-.138m7.3 0c.86.133 1.416.83 1.42 1.775.002.4.062.382-1.402.396-1.474.014-1.45.007-1.27.375.283.586 1.103.716 1.584.252.278-.268.275-.267.666-.06.41.22.4.197.204.454-1.008 1.328-3.164.818-3.49-.825-.287-1.448.823-2.596 2.29-2.37m8.93.043c.106.057.113.142.026.312-.035.068-.078.214-.097.323-.037.228-.15.3-.35.223-.167-.063-.617.044-.768.184-.292.27-.31.35-.324 1.57-.017 1.294.042 1.177-.584 1.154l-.368-.014-.012-1.814c-.014-2.09-.047-1.94.433-1.94.37 0 .43.05.43.348 0 .146.05.14.222-.02.4-.382 1.02-.527 1.39-.328m-32.076.055c-.112.16-.1 2.333.016 2.753.15.54.488 1 .734 1.015.042.001.116.032.165.07.28.21 1.23-.008 1.517-.35.148-.176.158-.172.175.06l.014.196.43.013c.614.02.56.207.56-1.92 0-2.118.05-1.938-.53-1.938-.637 0-.594-.1-.62 1.3-.025 1.136-.026 1.17-.133 1.328-.307.45-.8.49-1.143.095-.1-.115-.102-.146-.104-1.33-.001-.744-.02-1.246-.05-1.3-.077-.144-.93-.133-1.032.013m.926-.02c.037.024.058.393.07 1.254.015 1.16.02 1.228.116 1.38.3.497 1.025.4 1.323-.16.087-.167.098-.284.12-1.303.026-1.3-.01-1.206.507-1.206.528 0 .482-.18.497 1.907l.013 1.82-.106.026c-.058.015-.26.02-.45.012l-.345-.014-.026-.195c-.036-.267-.045-.27-.28-.044-.702.672-1.745.49-2.173-.382l-.147-.3-.015-1.34c-.018-1.587-.05-1.493.49-1.492.194 0 .377.016.407.035m14.177.74c-.277.1-.618.476-.525.59.077.093 1.618.086 1.696-.008.07-.085-.063-.32-.27-.474-.172-.127-.29-.137-.13-.01a.45.45 0 0 0 .167.092c.027 0 .05.02.05.042s.03.072.065.108c.215.215.147.24-.686.253-.924.015-.94.012-.812-.167.19-.27.412-.39.762-.424l.325-.03-.276-.002c-.152-.001-.317.01-.368.027m7.307-.006c-.135.026-.56.43-.56.533 0 .113.13.13.967.114l.76-.013.01-.115c.016-.164-.327-.51-.502-.505-.034.001.015.05.11.106.196.12.36.3.36.417 0 .074-1.552.118-1.625.045-.14-.14.402-.532.796-.572l.3-.03h-.253a2.9 2.9 0 0 0-.36.02m4.243.004c-.214.067-.526.378-.51.51l.014.122.806.01c.935.013.985-.001.853-.246-.182-.337-.743-.53-1.162-.396m-20.618.1c-1.004.467-.746 2.115.332 2.118 1.13.004 1.435-1.607.397-2.1-.275-.13-.48-.136-.728-.02m4.605 0c-1.004.467-.746 2.115.332 2.118 1.13.004 1.435-1.607.397-2.1-.275-.13-.48-.136-.728-.02m16.736-.022a1.51 1.51 0 0 0 .184.094c.08.03.28.372.24.4-.077.077-1.625.024-1.62-.055.002-.086.166-.295.277-.35.061-.032.122-.065.182-.1a1.08 1.08 0 0 1 .737.001m-20.75.05a.34.34 0 0 0 .163.067c.22 0 .553.562.553.937 0 .36-.313.905-.52.905-.037 0-.094.03-.125.07-.16.192-.726.032-1.016-.286-.162-.178-.24-.685-.164-1.08.078-.418.822-.828 1.108-.61m4.605 0a.34.34 0 0 0 .163.067c.22 0 .553.562.553.937 0 .36-.313.905-.52.905-.037 0-.094.03-.125.07-.16.192-.726.032-1.016-.286-.162-.178-.24-.685-.164-1.08.078-.418.822-.828 1.108-.61" fill="#7c7c7c"/></g></symbol></svg>